<svg id="レイヤー_1" data-name="レイヤー 1" xmlns="http://www.w3.org/2000/svg" xmlns:xlink="http://www.w3.org/1999/xlink" viewBox="0 0 1282.3 1094.16"><defs><style>.cls-1{fill:none;}.cls-1,.cls-3{stroke:#000;stroke-miterlimit:10;stroke-width:3px;}.cls-2{clip-path:url(#clip-path);}</style><clipPath id="clip-path" transform="translate(138.5 -127.38)"><path class="cls-1" d="M63.84,145c1.42.42,2.82.91,4.25,1.25,13.82,3.29,24.69,10.8,31.74,23.15a44.65,44.65,0,0,0,16.69,16.75c5.89,3.44,11.88,6.7,17.81,10.08,6.92,4,13.38,3.45,20.14-.91,12-7.76,24-15.58,36.6-22.37,14.85-8,30.6-9.85,46.69-3.17,8.75,3.63,11.58,8.89,9.48,18.21-4.62,20.57-14.94,38-30,52.6-8,7.85-17.73,10.79-28.9,8.77a116.71,116.71,0,0,0-17.47-2c1.14.83,2.23,1.74,3.42,2.47,24.34,14.85,50.28,16,77.06,8.64,8.81-2.43,17.38-5.69,26.12-8.4,17.32-5.36,34.89-4.06,52.47-1.7,63.34,8.51,126.75,16.52,190,25.74,34.17,5,68.48,7.45,102.86,9.7,10.27.67,20.44,2.8,30.71,3.71,13.21,1.19,26.53,3,39.71,2.43,19.75-.81,38.76,2.49,57.86,6.46s38.47,7.88,57.82,11.19c24.83,4.26,49.4,1.94,73.76-4.13,6.74-1.68,13.78-2.3,20.73-2.84a44.46,44.46,0,0,1,24.21,4.72c17.46,9,35,17.75,52.32,27,15.49,8.27,25.11,20.54,28.65,38.52,2.44,12.39,7.69,24.45,13.14,36,16.59,35.11,23.71,72.26,25.08,110.69.77,21.45.14,43,1.06,64.4a407.62,407.62,0,0,0,4.57,48.12c4.12,25.21,18.53,44.7,36.72,62,11.44,10.86,23.33,21.72,32.45,34.43,24.34,33.9,26.34,70.75,10.43,108.91a33,33,0,0,1-2.19,3.52c-.53-9.77-1.37-18.2-1.35-26.63,0-12-5.57-20.4-15.17-27a152.91,152.91,0,0,1-36.79-35.62c-19.09-25.86-29.53-55.29-35.46-86.53-5.59-29.42-6.92-59.16-6-89,1.14-36.43-.87-72.59-10.1-108-3.64-14-8.4-27.67-13-41.38-1.4-4.19-3.91-8-6.45-13.09-1.77,4-3.44,6.69-4.24,9.65-16,59.47-24.81,119.86-23.18,181.59q.6,22.71.6,45.45A141.34,141.34,0,0,0,1000,723.3c6.69,10.93,7.71,21.62,4.33,33.82-2.73,9.85-4.76,20.23-4.9,30.41-.61,42.6-.63,85.22-.35,127.84.11,17.11,5.16,33.11,14.34,47.69.44.7.92,1.39,1.3,2.13,2.8,5.49,1,8.4-5.08,8.06-1.65-.09-3.28-.55-4.94-.71-4-.4-6.75,1.31-6.57,5.49.25,5.6,1,11.2,1.79,16.76.31,2.29,1.37,4.45,1.85,6.73,2.76,13.07-3.43,22.78-16.77,23.43-16.4.8-32.9.14-49.34-.49-7.92-.3-10.25-4.72-6.83-11.93,2.77-5.84,6.17-11.39,9.42-17,17.22-29.66,22.9-62.23,23.64-95.88.41-19.13-.11-38.29-.38-57.43,0-2.93-.37-6.2-1.69-8.72-11.6-22.12-17.84-46-24.78-69.83-4.65-15.9-11.41-31.19-17.39-46.69-1.48-3.86-3.6-7.47-5.42-11.17-6.1,2.64-9.08,7.41-8.59,13.75a25.08,25.08,0,0,0,1.13,6.88c4.87,13.12,3.6,26.56,2.06,40-5.64,49.25-6,98.66-4.54,148.12.14,4.83,2,9.74,3.63,14.39,3.59,10,.22,16.41-10.22,18-4.79.75-8.19,2.71-9.06,7.75-.86,4.89-2,9.78-2.29,14.71-.84,14.78-6.91,22.12-21.52,22.78s-29.27-.06-43.89-.52c-2.14-.07-5.51-1.69-6-3.3-.61-2,.55-5.27,2-7,4.62-5.46,9.7-10.53,14.73-15.62,14.26-14.44,25-30.3,25.93-51.75.72-16.41,4.35-32.7,4.93-49.11a179.82,179.82,0,0,0-2.88-40.67,171.43,171.43,0,0,1-2.06-54.07c1.7-14,3.3-28.1,4.16-42.19.36-6-1.29-12.07-3.06-18.27-2.5,4.22-5,8.41-7.5,12.65-6.33,10.91-13.78,20.8-24.67,27.66-4.64,2.92-6.49,7.33-6.33,12.76a73.55,73.55,0,0,1-4.8,29.85c-.66,1.64-2.73,4.26-3.39,4.05a11.16,11.16,0,0,1-5.68-3.94c-1.07-1.6-1-4.14-1-6.26,0-7.82.3-15.65.47-23.47,0-1.59,0-3.19,0-5-5.75,2.43-7.82,7-7.34,14.56.4,6.47.47,13,.82,19.43.21,3.95-1.33,5.27-5.31,4.74-7.2-1-9.51-3.3-9.58-10.7-.05-6.16.1-12.33-.12-18.48-.08-2.44-.19-5.49-1.61-7.11-1.82-2.08-5-3.94-7.57-4-1.38,0-4,3.87-4.12,6.09-.47,9.11-.19,18.26-.19,27.15-9.06,2.93-12.5.6-12.52-7.78s0-16.92,0-25.35c-4.12-1.09-5.57.36-5.57,4.11,0,6.82-.23,13.65-.41,20.47-.11,4.55-2.9,6.21-6.77,3.77a11.76,11.76,0,0,1-3.65-4.51,7.39,7.39,0,0,1-.67-4.37c2.84-16.41-5.68-26.43-18.76-34.1A60.27,60.27,0,0,1,699,720.75c-4.53-7.48-9.32-9.32-16.35-6-31.09,14.75-63.89,17.1-97.19,12.34-35.56-5.08-70.94-11.53-106.31-17.85a75.1,75.1,0,0,1-31.9-13.68c-16.22-12.16-36-1.76-40.8,14.36-5,16.57-9.81,33.18-14.85,49.72-11.54,37.87-23,75.74-34.78,113.54-7,22.47-7.71,45.5-6.73,68.69.48,11.46.89,23,2.85,34.3,1.46,8.35,5,16.43,8.31,24.33,1.86,4.42,3.2,8.32.57,12.72-3.06,5.11-8.72,8.19-12.83,6.26-5.3-2.49-2.91-7.35-2.75-11.43a24.22,24.22,0,0,1,.34-2.49c-7.05,1.63-11.41,9-9.43,16.57,1.13,4.3,3.14,8.38,4.92,12.5a30.22,30.22,0,0,1-5.72,32.93c-4.19,4.39-9.29,7.31-15.38,7.35-20.29.15-40.6.18-60.89-.11-7-.1-9.52-4.7-6.2-11,3.49-6.57,7.7-12.77,12-19.76-1.91-.11-3.43-.25-5-.29-9.65-.29-19.32-.27-28.95-.94-5-.35-11-.48-13.23-6.19-2.09-5.36,2.18-9.18,5.45-12.53a224.27,224.27,0,0,1,18.94-17.68c8.28-6.72,14.72-14.34,17.11-25,6.61-29.34,13.68-58.59,19.79-88a61.52,61.52,0,0,0-3.59-36.35c-6.63-15.83-8.75-32.39-9.65-49.2-.95-17.78-1.5-35.59-2-53.4-.18-6.36-2.72-10.62-8.67-13.18-13-5.6-22.88-14.54-29.05-27.51-9-18.92-18.27-37.72-27.42-56.57-.95-2-1.95-3.87-2.83-5.84-8.31-18.73-22.8-28.7-43.15-29.58-13.89-.6-22.89-7.69-29.13-19.42-9.1-17.14-13.84-35.66-16.55-54.65-2.83-19.75-4.66-39.64-7.07-59.46-1.13-9.31-5.1-17.45-10.84-24.85-7.34-9.44-14.42-19.09-21.73-28.56-2.77-3.58-6.47-4.58-11.08-4-29.55,3.47-58.41-.36-86.71-8.95-4.4-1.33-8.5-3.78-12.56-6.05-4.83-2.69-9.69-3.31-14.82-1.19C-71.67,420.77-86.32,420-101,414a170.59,170.59,0,0,0-19.36-6.51c-12.67-3.51-16.14-8.44-15.7-21.52.25-7.37-.58-14.78-.92-22.16v-9c3.29-3.15,6.07-7.3,10-9.28,13.66-7,24.65-17,34.31-28.52,10.36-12.36,20-25.31,30.17-37.85a24.68,24.68,0,0,0,5.87-16.51c-.14-8.32-.42-16.64-.27-25,.2-10.81,4.28-19.67,13.78-25.62,3.37-2.12,6.51-4.6,9.77-6.91,6.58-4.66,9.8-11.11,10.28-19,.34-5.65.64-11.3,1-16.94.54-7.79,4-12.07,11.79-12,6.85.1,13.73,1.8,20.5,3.21,4.2.87,8.2,2.68,12.37,3.79,6.37,1.71,12-.28,15.21-5.75,4.06-6.9,9.8-11,17.09-13.42Z"/></clipPath></defs><g class="cls-2"><path class="cls-3" d="M-111.67,628c1.29-12.51,2.4-23.43,3.54-34.34,1-9.54,1.63-19.1-.55-28.56-3.09-13.43-11.62-23-25.23-28.49-2.35-1-3.06-2.12-3.06-4.43.07-21.69,0-43.38,0-65.08a5.89,5.89,0,0,1,1.09-3.62c15.76-18.78,33.74-35.49,55.53-48.35a111.37,111.37,0,0,1,20.09-9.09c13.61-4.73,25.64-1.87,35.6,7.95A106.36,106.36,0,0,1-6,439.64c3.51,6.51,6.93,13.07,10.2,19.69,8.61,17.42,23.67,28.08,42.9,33.85,9.41,2.82,19.42,3.9,28.94,6.46,18,4.84,35.92,10.28,51.36,20.54,16.74,11.12,23.84,26.57,22.13,45.38-.79,8.64-4.29,16.13-12.9,20.83a17.87,17.87,0,0,0-4.92,3.37,19.58,19.58,0,0,0-4.22,6.6c-1.33,4.2-3.14,7.47-8.26,8.48-3,.59-4.45,2.85-5.41,5.38-2.41,6.35-.86,12.53,1,18.66,2.44,7.92,5,15.84,4.33,24.19-.52,6.31-2,12.58-2.18,18.89-.3,8.29.18,16.61.32,24.92.2,11.79,1.51,23.67-2.94,35.13a52.69,52.69,0,0,1-2.87,6.26c-5.3,9.71-14,13.89-25.66,11.79-8.94-1.61-17.73-3.92-26.65-5.69C51.74,742.89,44,742,37.6,746.73a55.31,55.31,0,0,0-10,10.23c-3.35,4.17-6,8.82-9.11,13.15a56.17,56.17,0,0,1-6,7.16c-7.2,7.09-17.12,8-26,2.72-5.51-3.31-7.6-8.2-7.89-14a116.47,116.47,0,0,1,2.54-28.77c1.42-7.14.2-14.06-1.66-21a141.89,141.89,0,0,1-3.29-16.94c-.33-2.38.65-4.88.66-7.32a17.51,17.51,0,0,0-.9-6.37c-1.3-3.26-3.06-3.44-6.85-3.63a75,75,0,0,1-13.55-2.18c-12.19-2.92-24.49-5.59-36.41-9.25-12.92-4-23.16-11.44-27.22-23.95C-110.21,640.15-110.71,633.28-111.67,628Z" transform="translate(138.5 -127.38)"/><path class="cls-3" d="M882.75,672.8c-1,4.5-1.67,9.93-3.57,14.94a147.11,147.11,0,0,1-18.25,34c-5.29,7.34-12.47,12.53-22,13.84-4.7.65-9.71-.47-14.57-.88-1.93-.16-3.83-.69-5.76-.82a14,14,0,0,0-13.35,6.61c-3.38,5.06-4.16,10.77-4.9,16.52-1.06,8.25-1.88,16.56-3.73,24.66-1.7,7.44-6.11,13.87-12.4,18.9-8.92,7.13-19.46,7.75-30.22,5.1-8.59-2.12-17-4.95-25.34-7.81-13.79-4.74-27.8-7.29-42.55-5.15a52.35,52.35,0,0,0-32.55,17.41c-7.39,8.35-14.05,17.25-20.89,26-8.15,10.42-16.94,20.27-28.59,27.59-8.06,5.06-16.68,8.88-26.64,9.5-12.15.74-21.21-4.1-27.05-13.59-3.46-5.63-5.81-11.86-8.65-17.81-.62-1.3-1.16-2.63-1.86-3.89-4.42-7.88-10.37-10.73-19.77-8.69-10.67,2.32-21.18,5.26-31.8,7.74-13.84,3.23-27.82,4.33-41.69.41-20.95-5.91-33.16-19.06-35.81-39.09-2.39-18,2.48-34.41,15.82-48.1,4.29-4.4,9.68-7.9,14.5-11.88,7-5.76,11.75-12.61,10.29-21.62-.67-4.14-2.37-8.17-4-12.13-2.63-6.54-6.33-12.79-8.21-19.49-5.26-18.8,12.29-34.61,32.72-30,14.45,3.28,25.67,11.08,35.47,21,10,10.09,17.32,21.82,25,33.38q5.12,7.75,10.45,15.39a32.17,32.17,0,0,0,3.86,4.42c9,8.82,18.7,9.34,28.77,1.55,7.35-5.69,12.65-12.9,17.76-20.25,3.26-4.7,6.2-9.6,9.69-14.15,4.52-5.89,10.2-10.25,18.8-9.18,5.36.67,9.92,3.14,14,6.21,6,4.5,11.55,9.41,17.49,13.93,4.65,3.55,9.3,7.24,14.47,10,11.46,6.22,22.41,3.84,30.27-6,9.34-11.66,18.6-23.37,24.8-36.81a74.54,74.54,0,0,0,3.72-9.28c3.91-12.75,13.6-19.47,27.14-21.81a95.87,95.87,0,0,1,16.87-1.11,39.36,39.36,0,0,0,22.21-6.31c14.11-9,28.13-18.08,40.21-29.49,5.38-5.09,11.92-8.65,20.17-8.5,2.63,0,3.41.85,3.62,3.32.78,8.93,1.71,17.87,3,26.75.81,5.56,4,10.24,8.06,14.41,5.5,5.64,11.18,11.23,13.06,18.95C881.67,664.94,882,668.43,882.75,672.8Z" transform="translate(138.5 -127.38)"/><path class="cls-3" d="M-136.82,1097.09V977.54a32.07,32.07,0,0,1,3.27.6c10,2.87,20,5.73,29.9,8.69,13.66,4,25.45.34,36.21-7.38,10.46-7.5,17-17.66,21.8-28.75,4.21-9.82,7.47-20,11.3-29.94,3.07-8,6.72-15.68,13.77-21.51,8.51-7,18.77-9.48,29.75-8.12a147.52,147.52,0,0,1,24.46,5.33C47.79,900.74,62.09,903,77,901.62c7.44-.7,15-1.07,22.27-2.45a48.8,48.8,0,0,0,30-18.57c3.06-3.91,5.88-8,8.67-12.06,10.63-15.56,26.41-22.32,45.76-21.13,32.58,2,57.23,16.9,75.3,41.53,3.42,4.67,3.39,9.62-.27,14a36,36,0,0,1-8.87,7.67c-10.2,6.16-20.91,11.64-31,18-7.85,4.92-14,11.43-16.3,20.33-1.9,7.18-.91,14.19,1.86,20.89,4.45,10.76,9.41,21.34,14.11,32,3.53,8,6.15,16.2,5.9,25-.74,26.43-27.48,48.55-56,46.14-21-1.78-38.89-10.22-55-22.14-7-5.2-13.36-11.28-20.64-16.17a66.43,66.43,0,0,0-36.44-11.42c-12.22-.2-22.07,4.26-28.25,14.22-5.19,8.36-9.62,17.13-14.93,25.42a79,79,0,0,1-11.76,14.81c-9.7,9.18-22.08,11.54-35.27,8.76-10.66-2.24-21.06-5.54-31.54-8.48-7.78-2.18-15.58-4-23.83-3.81a41,41,0,0,0-22.66,7c-6.2,4.22-12.37,8.48-18.62,12.62C-132.35,1095-134.31,1095.78-136.82,1097.09Z" transform="translate(138.5 -127.38)"/><path class="cls-3" d="M202.46,735.84c-.28-4.43-.25-8.9-.91-13.29-1-6.54-4.59-11.86-10.12-16.07-2.45-1.87-4.9-3.74-7.38-5.59-8.53-6.33-11.74-15-12.83-24.62-2.57-22.54,7.6-40.84,22.71-57.46,8.77-9.64,19.26-17.58,29.77-25.51,3.41-2.58,6.33-5.71,9.75-8.28,7.32-5.49,14.78-10.84,22.27-16.13,14.86-10.48,20.24-24.2,17.1-41.06A155.14,155.14,0,0,1,270.67,511c-.92-12.59,6-20.79,17.91-25.9,11-4.73,22.76-5.41,34.64-5.1,14.16.36,26.81,5,38.68,11.79a217.08,217.08,0,0,0,36,15.89c13.57,4.74,25.59,11.54,34.32,22.62s7.36,22.21-4.41,30.88c-9.79,7.22-21.23,10.69-33.35,13-11.21,2.17-22.28,5-33.29,7.94-3.34.89-6.45,2.87-9.32,4.8-3.31,2.23-5.05,5.61-3.52,9.26a128.25,128.25,0,0,0,8,16.13A129.75,129.75,0,0,0,366,625.82c8.72,11.16,12.53,23.43,12.37,37.25-.13,11.51-3.78,21.06-12.79,29-8.3,7.31-14.82,15.93-21.28,24.62-6.64,8.93-8.46,18.65-7.22,29.18a43.77,43.77,0,0,1-1.3,18c-3.53,11.64-12.67,18.13-24.5,21.56-8.68,2.51-17.73,3.91-26.52,6.13-11.26,2.84-22.38,6.17-33.67,8.95a50.61,50.61,0,0,1-12.19,1.22c-8.25-.06-14.79-3.47-18.54-10.28A186.94,186.94,0,0,1,212.29,774c-3-7.12-6.29-14.2-8.41-21.55-1.53-5.32-1.37-11.05-2-16.59Z" transform="translate(138.5 -127.38)"/><path class="cls-3" d="M92.12,128.92h28.27c11.73,0,23.46,0,35.19,0,2,0,3.1.35,4.14,2.22,8.69,15.64,21.11,28.54,35.18,40.24,12.06,10,24,20.11,35.78,30.45,6.56,5.79,12.5,12.33,14.22,20.84a101,101,0,0,1,1.6,18.31c.15,8.89-.11,17.8-.44,26.69-.66,18-9.82,31.68-25.91,41.54-7,4.29-14,8.62-21.43,12.31-18.09,9-30.44,22.77-39.18,39.58-5.67,10.91-10.92,22-17,32.74a170.1,170.1,0,0,1-13.49,19.93c-7.19,9.35-17.57,14-29.75,15.33-4.17.46-8.37.91-12.57,1-4.94.15-7.55-1.66-9.35-5.93-2.89-6.86-3-14.05-2.93-21.24,0-8,.51-16.1,0-24.12-.61-10.53-6.84-19-13.11-27.39-4.88-6.55-10.63-11.7-18.84-14.86-12.63-4.86-21.06-14.13-28-24.72C6,298.73,1.64,284.7,3.32,269.36a37.9,37.9,0,0,1,2.62-10.45c4.61-11.09,6.16-22.65,7.24-34.37a64.6,64.6,0,0,1,10.19-29.46c4.57-7.05,12.29-10.73,20.77-12.78,16.26-3.93,30.48-11,42-22.46,8.34-8.33,11.22-17.61,6.58-28.42a16.24,16.24,0,0,1-.57-1.61A3.79,3.79,0,0,1,92.12,128.92Z" transform="translate(138.5 -127.38)"/><path class="cls-3" d="M323.45,1056.73c.77-19.18,9.21-36,19.38-52.25,5.18-8.27,10.67-16.38,15.81-24.67,6.36-10.26,8.65-21.5,9-33.2.26-9.07.51-18.17,3.71-26.9a36.9,36.9,0,0,1,14.83-19c8.95-5.77,19-4.71,26.28,2.87a79.11,79.11,0,0,1,6.74,8.46c7.28,10.14,18.09,10.49,27.36,4,4.18-2.91,7.37-7,10.89-10.73,2.71-2.84,5-6,7.86-8.74,9.15-8.79,21.07-9.42,31.54-1.92,6.48,4.65,10.83,10.79,14.64,17.34,2.28,3.92,4.5,7.87,7,11.64,5.15,7.67,13,11.35,22.55,12,7,.48,14,.26,20.89,1.23a36.89,36.89,0,0,1,13.69,4.53,70.06,70.06,0,0,1,13.89,11.53c4.69,4.91,4.81,11,3.14,17.22-3.18,11.81-10.2,21.74-17.83,31.45-11.32,14.39-27.16,21.81-45.44,25.55-13.61,2.79-27.32,5.15-40.9,8.07s-25.93,7.81-35.75,17.27c-5.33,5.14-9.08,11.16-12.43,17.49-5,9.42-9.87,18.92-15.52,28a54.93,54.93,0,0,1-21.08,19.55c-12.13,6.46-24.76,6.42-36.76.37-19.3-9.71-33.5-23.9-41-43.26A38.07,38.07,0,0,1,323.45,1056.73Z" transform="translate(138.5 -127.38)"/><path class="cls-3" d="M762.41,488.34c-.61-13.47,2-28.13,4.51-42.8a179.13,179.13,0,0,0,2.51-41,36.9,36.9,0,0,0-6.88-19.18c-4.48-6.35-9.13-12.59-13.48-19-5-7.39-7.86-15.41-5.11-24.06,4.52-14.22,14.86-19.22,29.79-17.35,11.75,1.47,23.32,4.2,34.92,6.58,9.55,2,18,0,24.48-6.54,5.65-5.71,10.24-12.29,15.51-18.33a110.12,110.12,0,0,1,10.68-10.93c4-3.44,9.11-5,14.55-5.59,6.68-.67,12.08,1.46,16.06,6.5a31.54,31.54,0,0,1,6.7,17.41c.49,6.14,3.79,10.56,9.25,13.61a135.72,135.72,0,0,0,12.83,6.07c8.58,3.68,17.1,7.44,24.16,13.41,5.67,4.78,9,10.44,7.77,17.86a13.41,13.41,0,0,1-9.43,11c-6.7,2.25-13.75,3.63-20.66,5.32-2.67.66-5.41,1.09-8.08,1.75-3.56.88-4.26,1.89-3.9,5.27a27,27,0,0,0,5.7,13.91,72,72,0,0,0,8,9.39c11.94,10.92,18.17,24.54,22.68,39.07a233.88,233.88,0,0,1,10,53.22c.52,7.48,1.19,14.93-1.4,22.2-2.51,7-6.41,13-15,14.68-5,1-9.78-.06-14.42-1.81-10.49-4-18.3-11.08-25.68-18.63-6.88-7-13.27-14.49-20.37-21.33a105.58,105.58,0,0,0-16.42-13.23c-12.86-8.12-27.75-7-39.35,2.62-5,4.17-9.39,9-13.92,13.65-5.51,5.65-10.84,11.57-18.55,14.71a49.36,49.36,0,0,1-12.92,3.28c-5.47.61-9.82-1.94-11.49-6.79a74.76,74.76,0,0,1-2.89-14.1C762.07,496.1,762.41,492.94,762.41,488.34Z" transform="translate(138.5 -127.38)"/><path class="cls-3" d="M541.1,475.48c-22.49-2-45-4-67.46-5.86-8.9-.75-17.84-1-26.72-1.91-8.72-.85-17-3-22.94-9.58-7.2-8.05-7.49-19.52-.64-30,3.23-4.93,7.25-9.43,10.36-14.42a62.2,62.2,0,0,0,6.21-12.83c2-5.86-.22-10.92-5.67-14.41a69.84,69.84,0,0,0-11.46-6c-10.23-4.11-16-11.42-19-21a56.44,56.44,0,0,1-.14-34.68c4.33-13.78,15.15-21.3,29.85-24.07,8.52-1.6,17.31-2,26-3,4.88-.57,9.77-1.15,14.58-2,10-1.83,17.7-7.23,24.44-14,5.65-5.64,11.12-11.44,17-16.84,10.74-9.83,23.15-12,37.29-6.53,18.53,7.1,32.41,18.57,41.11,35.32,5.51,10.62,5.09,21-2.14,30.64-5.75,7.71-12.17,15-18.38,22.41-5.81,6.93-11,14.18-13.54,22.72a37.56,37.56,0,0,0,4,31,164.06,164.06,0,0,0,10.39,15.07c7.92,10.52,14,21.8,17,34.33,2.65,11.05-2.9,19.81-14.81,22.86a80.9,80.9,0,0,1-15.48,2.1c-6.56.35-13.16.08-19.75.08Z" transform="translate(138.5 -127.38)"/><path class="cls-3" d="M389,1220c.35-2.29.34-4.19.94-5.91A85,85,0,0,1,422,1171.64c10.31-7.29,22.39-10,35.08-10.84,17-1.09,34.05-1.51,50.77-5.09,14.23-3,25.77-9.6,34-20.85,4.88-6.67,9.86-13.27,14.72-20a70.27,70.27,0,0,1,20.23-18.84c10.93-6.75,21.83-13.46,33.82-18.57,21.94-9.37,40-3.25,53.72,12.72,8.8,10.24,13,22.29,14.85,35,2,13.76,1.91,27.6-1.61,41.18a40.59,40.59,0,0,1-5.27,11.39,79.16,79.16,0,0,0-9.62,19.85c-2.69,8.92-8.86,15.7-16.68,21.25a7.37,7.37,0,0,1-4,1.09q-123.35.07-246.67,0Z" transform="translate(138.5 -127.38)"/><path class="cls-3" d="M728.07,1219.91c1.39-4.22,3-7.92,3.8-11.76,2.47-12.16.18-23.9-4.6-35.28-3.56-8.45-7.39-16.8-11-25.23a52,52,0,0,1-4.36-22.18c.33-11.2,6.17-19.7,15.44-26.59,10.72-8,23.15-12.8,35.89-17.14,10.17-3.47,20.57-6.46,29.72-12.1a66,66,0,0,0,28.89-36.7c2-6,4.88-9.84,11.62-12.24,7.66-2.72,14.85-6.51,23.4-6,15.56,1,30,4.48,40.8,15.87,7.94,8.38,11.14,18.45,11.41,29.29.53,21.17-8.22,39.24-22.78,55.17-9.34,10.22-20.55,18.47-32.51,26a96.27,96.27,0,0,0-14.62,10.81c-11.33,10.5-11.4,23.15-.56,34.05,5.06,5.1,10.54,9.84,15.49,15a27.58,27.58,0,0,1,7.85,15.44c.43,3.21.16,3.55-3.46,3.55H728.07Z" transform="translate(138.5 -127.38)"/><path class="cls-3" d="M937.39,867c-.35,17.67-6.92,32.81-16.2,47.11-9.74,15-23.29,26.28-40.36,34a274.68,274.68,0,0,0-36.64,19.68c-18.55,12.06-38.41,11.53-58.62,4-5.11-1.91-8.1-5.61-8.65-10.83-.32-3.11-1-6.19-1.1-9.3-.1-2.26-1.09-3.73-3.38-4.09-4.2-.68-8.54-1.85-12.67-1.45a37.14,37.14,0,0,1-24.62-6.38c-15.79-10.44-31-21.59-43.84-35.18a87.14,87.14,0,0,1-7.91-10.45,20.17,20.17,0,0,1-2.31-5.22c-1.9-6,0-10.29,6.61-11.58,7.56-1.49,15.42-1.74,23.16-2.45,6.73-.62,13.5-1,20.2-1.79a16.16,16.16,0,0,0,10.49-6c2.45-2.92,5.12-5.68,7.65-8.54,6.27-7.1,14.55-10.5,24.29-10.3,9.33.2,18.63,1.4,28,1.58,7.76.16,15.56-.35,23.31-.89a119.93,119.93,0,0,0,12.74-2c5.23-.94,8.77-3.68,10.69-8.39,2.08-5.09,3.72-10.45,8.49-14.23,8.26-6.57,18.11-8.5,28.51-7.35,15,1.65,28.19,7.14,38.86,17.29a41.94,41.94,0,0,1,12.86,26.08C937.21,862.8,937.27,865.27,937.39,867Z" transform="translate(138.5 -127.38)"/><path class="cls-3" d="M691.33,584.66l-11-1.26c-8.7-1-16,1.4-21.78,7.55-5.95,6.35-9.18,14-12.51,21.68-3.95,9.11-7.74,18.3-12.19,27.2a32.55,32.55,0,0,1-7.92,9.65c-7.55,6.5-16,6.12-22.51-1.26a82.58,82.58,0,0,1-10.13-15.13c-5.21-9.62-10-19.45-14.74-29.29-2.23-4.64-3.92-9.51-5.85-14.27a31.39,31.39,0,0,0-1.83-4.48c-2.53-4.25-6.3-5.63-11.15-3.67a100.73,100.73,0,0,0-10.38,5.47c-3.35,1.84-6.53,4-10,5.55-10.54,4.76-19.27,1.59-23.53-8.53-5-11.88-3.95-23.3,3.35-34.22,8.39-12.55,20-22.19,32.37-31.28,15.85-11.66,33.91-18,53.86-20.63,7.64-1,15.12-3.36,22.51-5.58,6.18-1.86,9.7-6.23,11.53-12,3.31-10.5,6.56-21,10.57-31.32,1.72-4.43,4.82-8.59,8.11-12.26,5.54-6.19,12.39-7,20.12-3.2,11.2,5.5,16.83,14.56,18.42,25.7a157.31,157.31,0,0,1,1.56,24.05c-.17,13,3.49,25.17,8,37.3,3.27,8.82,6.2,17.79,8.56,26.85,2.16,8.34,1.08,16.73-2.15,24.81C708.66,581.9,703.06,585.17,691.33,584.66Z" transform="translate(138.5 -127.38)"/><path class="cls-3" d="M681,128.92c6.69,0,13.38-.09,20.06.07a6.25,6.25,0,0,1,3.81,1.66c7,6.94,9.27,15.81,11.67,24.63q1.63,6,3.55,12c3.81,11.9,13.09,17.83,26,18.92,9.38.79,18.86.52,28.29.84,6.56.22,13.19.14,19.65,1,10.82,1.51,17.21,7.94,18.84,17.91a40.29,40.29,0,0,1-1.5,19.94c-3.38,9.8-7.16,19.48-10.81,29.2-.5,1.33-1.24,2.59-1.83,3.9-6,13.43-17.2,19.54-32.71,20a163.92,163.92,0,0,0-19.24,2.06c-9.6,1.44-17.54,5.83-24.79,11.78A296.26,296.26,0,0,1,698,310.78c-11.59,7.71-24.74,12.08-39,13.6-2.16.23-2.78-.68-3-2.27-.44-4.24-.9-8.47-1.23-12.71-1.14-15,1.2-29.77,4.5-44.47,3.63-16.22,1.41-31.62-9.25-45.43-6-7.74-14.4-13.18-21.81-19.57-4.76-4.1-9.59-8.54-12.75-13.68-6.09-9.92-5.76-26.16,10.91-36.53,10.63-6.62,21.08-13.48,31.66-20.17a5.71,5.71,0,0,1,2.85-.6C667.59,128.9,674.27,128.92,681,128.92Z" transform="translate(138.5 -127.38)"/><path class="cls-3" d="M-136.88,369.72v-5q0-116.66-.06-233.31c0-1.75.31-2.54,2.48-2.54q55.56.08,111.12.05c.39,0,.78.09,1.76.21a14.41,14.41,0,0,1-2,2.54c-8.51,6.69-17.14,13.26-25.6,20A97.24,97.24,0,0,0-60,161.31c-5.63,6.08-6.35,13-2.25,20.06a41.07,41.07,0,0,0,6.2,8.43,54.91,54.91,0,0,1,15.3,30.13,130.64,130.64,0,0,1,2.08,22.83c0,10-4.66,18.92-10.79,27-13,17.08-29,31.16-49,41.1-8.2,4.08-12.89,10-13.17,18.71-.18,5.28,0,10.68-1.14,15.82-2.59,12.1-12,19.08-23.24,24.46C-136.18,369.92-136.43,369.8-136.88,369.72Z" transform="translate(138.5 -127.38)"/><path class="cls-3" d="M302.71,129.05H545.77a22,22,0,0,1-1.66,1.92c-8.22,7.42-16.64,14.67-24.65,22.28-6.35,6-14.06,10.15-22,14-11.42,5.54-20.17,13.18-25.18,24.3a87.77,87.77,0,0,1-4.93,8.81,63.46,63.46,0,0,1-4,6c-7.08,9.26-16.42,12.3-28.26,9.28-10.3-2.62-19-8-27.41-13.75-7.66-5.26-15.19-10.68-22.95-15.81s-16.45-8.25-25.87-8c-7.17.22-14.3,2.11-21.41,3.43-9.42,1.76-18.73,4.18-28.23,5.41a35.41,35.41,0,0,1-23.64-5.57c-6.92-4.34-9.52-10.3-6.56-17.46a70.91,70.91,0,0,1,7.72-13.13C291.8,143.59,297.18,136.57,302.71,129.05Z" transform="translate(138.5 -127.38)"/><path class="cls-3" d="M1048.09,1219.61H989.6c1-1.73,1.8-3,2.58-4.3,5.21-8.52,9.67-17.28,10.85-27.18,1.5-12.43-1.39-24.26-7.13-35.25-7.86-15.05-16.68-29.68-25.25-44.41-5.37-9.24-8.43-19-7-29.43,2-14.52,12-22.89,26.39-27.4,12.05-3.78,24.53-3.14,37-2.54,5.85.27,11.66,1.13,17.51,1.28,3.16.08,3.62,1.19,3.61,3.74-.1,20.36-.05,40.73-.05,61.09v104.4Z" transform="translate(138.5 -127.38)"/><path class="cls-3" d="M1047.92,311.12V551c-6.76-.92-13.36-1.55-19.82-2.79a55.28,55.28,0,0,1-12.77-3.92c-8.12-3.76-10.26-10.44-6.1-17.9,4.8-8.6,9.94-17,17.31-24,3.93-3.75,4.74-8.68,5.45-13.57a18.83,18.83,0,0,1,5.86-11.85c3.86-3.55,3.71-8.13,2.57-12.76-4-16.36-13.91-29.21-27.6-40-9.37-7.37-18.85-14.7-26.09-24.05-9.71-12.56-16.13-26.4-17.66-41.76-1.66-16.81,7.28-29.89,24.7-35.45,9.41-3,19.52-4.17,29.29-6.28,7.86-1.7,15.67-3.57,23.51-5.37C1046.94,311.21,1047.34,311.19,1047.92,311.12Z" transform="translate(138.5 -127.38)"/><path class="cls-3" d="M266.15,1219.9h-6l-91.64.07c-2.57,0-5.16-.27-7.71,0-3.18.3-3.83-1-3.75-3.6.24-7.29-.13-14.55-2.53-21.6a23.25,23.25,0,0,0-14.55-14.83c-5.21-2-10.56-3.6-15.77-5.56-5.43-2-10.11-5-13.34-9.68-4.53-6.53-4-13,1.8-18.65,6.81-6.64,15.43-10.6,24.77-13.22,23.9-6.69,48-7.6,72.25-1.6,18.88,4.67,26.51,16.7,27.52,32.8.52,8.37-.26,16.81-.51,25.22-.25,8.82,3.59,15.59,11.81,20.13,4.92,2.72,10,5.27,14.93,7.91,1,.56,2,1.22,3,1.83C266.32,1219.37,266.24,1219.64,266.15,1219.9Z" transform="translate(138.5 -127.38)"/><path class="cls-3" d="M949.39,129h98.53v95.11a19.09,19.09,0,0,1-3.19-1.5c-4.2-3.19-8.31-6.47-12.48-9.69-1.58-1.21-3.16-2.44-4.85-3.5-6.48-4.07-11.93-4-17.46,1.18-4.59,4.29-8.38,9.3-12.63,13.91-6.58,7.12-14.38,11.93-25.16,10.41-13.13-1.85-22.46-10-25.33-22.08-2.69-11.26-1.07-22.4,1.55-33.43,1.67-7,4-13.86,5.94-20.79,1.12-3.93.27-7.67-1.56-11.28A31.1,31.1,0,0,1,949.39,129Z" transform="translate(138.5 -127.38)"/><path class="cls-3" d="M-137,1151.88c1.63.33,2.9.48,4.1.85,11,3.37,20.15,9.66,29.36,15.82,11.22,7.51,22.22,15.28,33.55,22.64,6.28,4.08,13,7.56,20.75,9s13.6-.84,17.32-7.22c2.08-3.57,3.66-7.38,5.37-11.12,5.57-12.12,17.19-18.56,31.29-16.16,22.44,3.81,37,16.41,44.86,35.92a29.45,29.45,0,0,1,2,15.87c-.33,2.11-1.19,2.7-3.34,2.55s-4.52,0-6.79,0l-172.21-.08c-6.19,0-6.18,0-6.19-5.68q0-29.55-.08-59.1Z" transform="translate(138.5 -127.38)"/><path class="cls-3" d="M-136.79,912.6V720.8c1.25.66,2.22,1.08,3.08,1.64a72.2,72.2,0,0,1,18.22,17.17c6,7.79,12.11,15.53,18.56,23,12.71,14.76,16.18,31.69,14.57,49.93-.77,8.73-3.33,17.07-6.57,25.27-5.73,14.55-11.47,29.1-17.1,43.68-5.11,13.25-14.26,23.27-27.68,30A29.44,29.44,0,0,1-136.79,912.6Z" transform="translate(138.5 -127.38)"/><path class="cls-3" d="M315.59,298.46a36.84,36.84,0,0,1,4.93,0c8,1.13,12.41,5.62,12.39,13.14,0,3.37-.11,7-1.41,10.06-5.27,12.5-3.51,24.84-.06,37.31,2.83,10.23,5.74,20.46,7.89,30.82a47.58,47.58,0,0,1,.55,15.79C338.35,417,328,422.6,316,419.06a28.56,28.56,0,0,1-15.14-11.14c-6-8.25-11.4-16.83-17-25.28-4.64-6.95-9.4-13.87-16.62-18.82a43.85,43.85,0,0,0-9.75-4.61c-2-.73-3.26-1.64-3.92-3.53-4.68-13.38-1.21-25.2,9-35.12C276.81,306.61,295.18,300.26,315.59,298.46Z" transform="translate(138.5 -127.38)"/><path class="cls-3" d="M908.41,750.73c.23-6.33,3.4-12.31,6.12-18.41,3.76-8.44,7.37-17.05,6.14-26.3-.9-6.78-3.24-13.41-5-20.1-1.19-4.58-2.71-9.1-3.62-13.72-1.71-8.66.57-16.26,7.71-22.47,5.91-5.15,12.36-9.32,20.45-11,8.6-1.8,15.25,1.42,17.66,9.22a107.71,107.71,0,0,1,3.08,15c1.23,7.61,5.47,12.85,13.7,14.64,13.42,2.94,16.65,10.63,16,21.67-.6,10.24-5.19,19.34-10.92,27.95A114.12,114.12,0,0,1,945,760.49c-7.46,4.71-15.57,7.3-24.68,4.53C912.57,762.67,908.33,757.64,908.41,750.73Z" transform="translate(138.5 -127.38)"/><path class="cls-3" d="M754.84,129.08h156l.59.68c-3.22,3-6.23,6.11-9.68,8.81-9.66,7.57-21.18,10.41-33.64,10.74-13.14.35-26-1.38-38.79-3.9-11.22-2.22-22.6-2.45-34-1.84-7.39.39-14.79.56-22.19.69a37.63,37.63,0,0,1-7-.59C756.91,142.05,753.65,137.78,754.84,129.08Z" transform="translate(138.5 -127.38)"/><path class="cls-3" d="M1047.93,611.81V779c-.16.08-.41.27-.5.22-8.39-4.21-16.9-8.31-23.22-15.14-7.23-7.8-8.23-17.14-6.66-26.77,2.13-13.08,8.55-24.52,16.56-35.34a140.79,140.79,0,0,0,10-15c4-7.13,3.44-14.59.54-22a67.55,67.55,0,0,1-4.48-31.24C1040.85,626,1042.6,618.38,1047.93,611.81Z" transform="translate(138.5 -127.38)"/><path class="cls-3" d="M1047.84,857.72v59.83c-9.88-.56-21.42-9.27-22.93-17.7-1.07-6,1.19-11.41,4.44-16.43,2.46-3.81,5.46-7.32,8.11-11,3-4.19,5.84-8.45,8.76-12.67C1046.57,859.21,1047,858.76,1047.84,857.72Z" transform="translate(138.5 -127.38)"/></g><path class="cls-1" d="M63.84,145c1.42.42,2.82.91,4.25,1.25,13.82,3.29,24.69,10.8,31.74,23.15a44.65,44.65,0,0,0,16.69,16.75c5.89,3.44,11.88,6.7,17.81,10.08,6.92,4,13.38,3.45,20.14-.91,12-7.76,24-15.58,36.6-22.37,14.85-8,30.6-9.85,46.69-3.17,8.75,3.63,11.58,8.89,9.48,18.21-4.62,20.57-14.94,38-30,52.6-8,7.85-17.73,10.79-28.9,8.77a116.71,116.71,0,0,0-17.47-2c1.14.83,2.23,1.74,3.42,2.47,24.34,14.85,50.28,16,77.06,8.64,8.81-2.43,17.38-5.69,26.12-8.4,17.32-5.36,34.89-4.06,52.47-1.7,63.34,8.51,126.75,16.52,190,25.74,34.17,5,68.48,7.45,102.86,9.7,10.27.67,20.44,2.8,30.71,3.71,13.21,1.19,26.53,3,39.71,2.43,19.75-.81,38.76,2.49,57.86,6.46s38.47,7.88,57.82,11.19c24.83,4.26,49.4,1.94,73.76-4.13,6.74-1.68,13.78-2.3,20.73-2.84a44.46,44.46,0,0,1,24.21,4.72c17.46,9,35,17.75,52.32,27,15.49,8.27,25.11,20.54,28.65,38.52,2.44,12.39,7.69,24.45,13.14,36,16.59,35.11,23.71,72.26,25.08,110.69.77,21.45.14,43,1.06,64.4a407.62,407.62,0,0,0,4.57,48.12c4.12,25.21,18.53,44.7,36.72,62,11.44,10.86,23.33,21.72,32.45,34.43,24.34,33.9,26.34,70.75,10.43,108.91a33,33,0,0,1-2.19,3.52c-.53-9.77-1.37-18.2-1.35-26.63,0-12-5.57-20.4-15.17-27a152.91,152.91,0,0,1-36.79-35.62c-19.09-25.86-29.53-55.29-35.46-86.53-5.59-29.42-6.92-59.16-6-89,1.14-36.43-.87-72.59-10.1-108-3.64-14-8.4-27.67-13-41.38-1.4-4.19-3.91-8-6.45-13.09-1.77,4-3.44,6.69-4.24,9.65-16,59.47-24.81,119.86-23.18,181.59q.6,22.71.6,45.45A141.34,141.34,0,0,0,1000,723.3c6.69,10.93,7.71,21.62,4.33,33.82-2.73,9.85-4.76,20.23-4.9,30.41-.61,42.6-.63,85.22-.35,127.84.11,17.11,5.16,33.11,14.34,47.69.44.7.92,1.39,1.3,2.13,2.8,5.49,1,8.4-5.08,8.06-1.65-.09-3.28-.55-4.94-.71-4-.4-6.75,1.31-6.57,5.49.25,5.6,1,11.2,1.79,16.76.31,2.29,1.37,4.45,1.85,6.73,2.76,13.07-3.43,22.78-16.77,23.43-16.4.8-32.9.14-49.34-.49-7.92-.3-10.25-4.72-6.83-11.93,2.77-5.84,6.17-11.39,9.42-17,17.22-29.66,22.9-62.23,23.64-95.88.41-19.13-.11-38.29-.38-57.43,0-2.93-.37-6.2-1.69-8.72-11.6-22.12-17.84-46-24.78-69.83-4.65-15.9-11.41-31.19-17.39-46.69-1.48-3.86-3.6-7.47-5.42-11.17-6.1,2.64-9.08,7.41-8.59,13.75a25.08,25.08,0,0,0,1.13,6.88c4.87,13.12,3.6,26.56,2.06,40-5.64,49.25-6,98.66-4.54,148.12.14,4.83,2,9.74,3.63,14.39,3.59,10,.22,16.41-10.22,18-4.79.75-8.19,2.71-9.06,7.75-.86,4.89-2,9.78-2.29,14.71-.84,14.78-6.91,22.12-21.52,22.78s-29.27-.06-43.89-.52c-2.14-.07-5.51-1.69-6-3.3-.61-2,.55-5.27,2-7,4.62-5.46,9.7-10.53,14.73-15.62,14.26-14.44,25-30.3,25.93-51.75.72-16.41,4.35-32.7,4.93-49.11a179.82,179.82,0,0,0-2.88-40.67,171.43,171.43,0,0,1-2.06-54.07c1.7-14,3.3-28.1,4.16-42.19.36-6-1.29-12.07-3.06-18.27-2.5,4.22-5,8.41-7.5,12.65-6.33,10.91-13.78,20.8-24.67,27.66-4.64,2.92-6.49,7.33-6.33,12.76a73.55,73.55,0,0,1-4.8,29.85c-.66,1.64-2.73,4.26-3.39,4.05a11.16,11.16,0,0,1-5.68-3.94c-1.07-1.6-1-4.14-1-6.26,0-7.82.3-15.65.47-23.47,0-1.59,0-3.19,0-5-5.75,2.43-7.82,7-7.34,14.56.4,6.47.47,13,.82,19.43.21,3.95-1.33,5.27-5.31,4.74-7.2-1-9.51-3.3-9.58-10.7-.05-6.16.1-12.33-.12-18.48-.08-2.44-.19-5.49-1.61-7.11-1.82-2.08-5-3.94-7.57-4-1.38,0-4,3.87-4.12,6.09-.47,9.11-.19,18.26-.19,27.15-9.06,2.93-12.5.6-12.52-7.78s0-16.92,0-25.35c-4.12-1.09-5.57.36-5.57,4.11,0,6.82-.23,13.65-.41,20.47-.11,4.55-2.9,6.21-6.77,3.77a11.76,11.76,0,0,1-3.65-4.51,7.39,7.39,0,0,1-.67-4.37c2.84-16.41-5.68-26.43-18.76-34.1A60.27,60.27,0,0,1,699,720.75c-4.53-7.48-9.32-9.32-16.35-6-31.09,14.75-63.89,17.1-97.19,12.34-35.56-5.08-70.94-11.53-106.31-17.85a75.1,75.1,0,0,1-31.9-13.68c-16.22-12.16-36-1.76-40.8,14.36-5,16.57-9.81,33.18-14.85,49.72-11.54,37.87-23,75.74-34.78,113.54-7,22.47-7.71,45.5-6.73,68.69.48,11.46.89,23,2.85,34.3,1.46,8.35,5,16.43,8.31,24.33,1.86,4.42,3.2,8.32.57,12.72-3.06,5.11-8.72,8.19-12.83,6.26-5.3-2.49-2.91-7.35-2.75-11.43a24.22,24.22,0,0,1,.34-2.49c-7.05,1.63-11.41,9-9.43,16.57,1.13,4.3,3.14,8.38,4.92,12.5a30.22,30.22,0,0,1-5.72,32.93c-4.19,4.39-9.29,7.31-15.38,7.35-20.29.15-40.6.18-60.89-.11-7-.1-9.52-4.7-6.2-11,3.49-6.57,7.7-12.77,12-19.76-1.91-.11-3.43-.25-5-.29-9.65-.29-19.32-.27-28.95-.94-5-.35-11-.48-13.23-6.19-2.09-5.36,2.18-9.18,5.45-12.53a224.27,224.27,0,0,1,18.94-17.68c8.28-6.72,14.72-14.34,17.11-25,6.61-29.34,13.68-58.59,19.79-88a61.52,61.52,0,0,0-3.59-36.35c-6.63-15.83-8.75-32.39-9.65-49.2-.95-17.78-1.5-35.59-2-53.4-.18-6.36-2.72-10.62-8.67-13.18-13-5.6-22.88-14.54-29.05-27.51-9-18.92-18.27-37.72-27.42-56.57-.95-2-1.95-3.87-2.83-5.84-8.31-18.73-22.8-28.7-43.15-29.58-13.89-.6-22.89-7.69-29.13-19.42-9.1-17.14-13.84-35.66-16.55-54.65-2.83-19.75-4.66-39.64-7.07-59.46-1.13-9.31-5.1-17.45-10.84-24.85-7.34-9.44-14.42-19.09-21.73-28.56-2.77-3.58-6.47-4.58-11.08-4-29.55,3.47-58.41-.36-86.71-8.95-4.4-1.33-8.5-3.78-12.56-6.05-4.83-2.69-9.69-3.31-14.82-1.19C-71.67,420.77-86.32,420-101,414a170.59,170.59,0,0,0-19.36-6.51c-12.67-3.51-16.14-8.44-15.7-21.52.25-7.37-.58-14.78-.92-22.16v-9c3.29-3.15,6.07-7.3,10-9.28,13.66-7,24.65-17,34.31-28.52,10.36-12.36,20-25.31,30.17-37.85a24.68,24.68,0,0,0,5.87-16.51c-.14-8.32-.42-16.64-.27-25,.2-10.81,4.28-19.67,13.78-25.62,3.37-2.12,6.51-4.6,9.77-6.91,6.58-4.66,9.8-11.11,10.28-19,.34-5.65.64-11.3,1-16.94.54-7.79,4-12.07,11.79-12,6.85.1,13.73,1.8,20.5,3.21,4.2.87,8.2,2.68,12.37,3.79,6.37,1.71,12-.28,15.21-5.75,4.06-6.9,9.8-11,17.09-13.42Z" transform="translate(138.5 -127.38)"/></svg>