<svg id="レイヤー_1" data-name="レイヤー 1" xmlns="http://www.w3.org/2000/svg" xmlns:xlink="http://www.w3.org/1999/xlink" viewBox="0 0 841.8 972.9"><defs><style>.cls-1,.cls-2{fill:none;}.cls-1{stroke:#b25f19;stroke-miterlimit:10;stroke-width:5px;}.cls-3{clip-path:url(#clip-path);}.cls-4{clip-path:url(#clip-path-2);}.cls-5{clip-path:url(#clip-path-3);}</style><clipPath id="clip-path" transform="translate(38 -373.5)"><path class="cls-1" d="M128.2,376c2.7,1.8,3.7,4.3,3.6,7.5s.2,4.2-.1,6.2c-1.6,10.1,4.6,17,9.7,24.4,1.7,2.4,3.8,1.5,6-.3s5.3-3,7.9-2.7c6.1.7,10.4,6.8,9.9,13.8-.3,3,.7,4.8,2.7,6.9,19.2,20.1,36,42.2,52.9,64.3s35.5,46.8,54.1,69.4,41.2,44.5,67.2,61c22.1,14,46.1,24,70.9,32.2,14.8,4.9,29.5,10.6,42.4,19.7a61.8,61.8,0,0,1,10,9.1c14.1,15.2,27.3,31.4,42.3,45.8,25.5,24.4,55.5,41.4,89.4,51.6,18,5.4,34.1,14,47.2,27.7,7.4,7.7,15.5,14.7,23.1,22.1,20.3,19.5,29.1,43.5,27.4,71.5-1,16.3-1.6,32.5-1.8,48.8a85.1,85.1,0,0,0,5.8,32.3c1,2.4,3.4,4.3,4.1,6.7a120,120,0,0,1,3.8,17.8,109.7,109.7,0,0,1,0,17.2,18.7,18.7,0,0,0,3.4,12.4,11.5,11.5,0,0,1,1.7,4.7c-6.6-2.4-6.9-9.4-10.3-14.1l-.9.3c1,3.9,1.6,7.8,3.1,11.5a107.6,107.6,0,0,0,7,14.5,66.4,66.4,0,0,1,8.7,32.2c.1,1.7.4,3.4.6,5.1v10.2c-.9-.7-2.3-1.4-2.5-2.3-2.8-11.7-8.3-22.2-13.9-32.6s-10.7-19.5-15.4-29.6-8-22.6-6.3-34.9c.5-3.8,2.1-7.7,1.9-11.5-.4-9.6-1.1-19.3-2.4-28.8-2.5-17.6-5.8-35-4-52.9a42.8,42.8,0,0,0-.1-6.2c-.6-6.2-1.9-12.1-7.3-17.1a20.8,20.8,0,0,0-1.3,3.7c-.1,2.8.3,5.7,0,8.4-2.1,20.3-4,40.7-6.4,60.9-2.9,24.5-.5,48,11.5,70.1a253.3,253.3,0,0,1,12.6,28.1c4.4,11.5,5.7,23.4,1.5,35.5a3.2,3.2,0,0,0-.1,1.7c1.2,10.1,2.5,20.3,3.7,30.5,2.6,22.4,4.5,45,8,67.3,3.9,24.5,11.6,48.2,13.9,73,0,.8.1,1.8-.4,2.3-4.8,5.7-5.7,12.8-7.1,19.7a69.6,69.6,0,0,1-4.7,14.2c-3.1,6.2-8.4,9.1-15.6,8.9-4.4,0-8.9,1.1-13.3,1.6h-11c-2.8-4.8-2.5-6.9,2.2-11.8,12.3-12.7,18.6-28.5,22.8-45.2,1.4-5.6.7-11.9.6-17.8-.6-20.2-3.9-40.2-7.4-60a411.2,411.2,0,0,0-56-146,12.2,12.2,0,0,0-2.4-2.7c1.7,7.7,2.1,15.6,6.3,22.6s3.7,14.3,1.8,21.4c-5.4,20.3-11,40.5-17.1,60.6-9.6,31.8-16.2,64.2-23.5,96.5-1.1,5-3.6,9.9-3.9,14.8-.4,8.5-6.6,11.9-12,16.2a2.7,2.7,0,0,0-1.3,1.5c-.7,4.1-1.4,8.1-1.9,12.2-.8,6.7-5.3,11.4-9,16.5a3.2,3.2,0,0,1-1.2.8c-11.3,3.3-22.6,6.4-34.6,4.1a25.8,25.8,0,0,1-3.3-1c0-.6-.1-.9,0-1,6.6-6.5,10.2-14.8,14.3-22.9a96.9,96.9,0,0,1,8.7-13.5c1.3-1.6,2.6-4.4,5.8-3.2.3.1,1.1-1.2,1.5-1.9,29.5-56.4,39.3-116.8,35.2-179.8-1.7-25.1-7.8-49.5-13.9-73.8-3.5-14-6.1-28.2-9.2-42.3a21.7,21.7,0,0,0-.7-2.4c-1.6-4.6-4.2-5.9-8.4-3.6-5.8,3.1-11.3,6.8-16.9,10.3s-9.4,6.2-14.3,8.9-6.1,2-9.7-2.3a5.9,5.9,0,0,0-3.1-1.7c-19.8-2.5-39.7-5.1-59.6-7.2a41.8,41.8,0,0,0-14.1.8c-6.4,1.3-8.1,5.8-6.9,12,2.7,14.1,5.3,28.2,7.1,42.3s2.9,29.5,4.4,44.2a49.9,49.9,0,0,0,2.4,9.2c1.8,5.4,4,10.6,5.5,16.1.6,2.2-.3,4.8-.6,7.3a353.1,353.1,0,0,0,7,119.9c2.3,9.7,4.4,19.6,6.6,29.3,1,4.4,1.9,8.5.9,13.1-2,9.5-3.6,19-5.4,28.5-.5,2.8-2.4,5.1-1.7,8.5.3,1.5-2.2,4.2-4,5.5-6.4,4.4-13.9,6.2-21.5,6.7a67.5,67.5,0,0,1-14.2-.5c-4.7-.6-5.6-2.7-4.3-7.3.5-1.9.2-4.8,1.5-5.9,4.4-3.7,3.3-9.5,6.4-13.9,11.4-16.1,14.6-34.2,12.8-53.7-2.9-32.3-8.4-64.2-14.8-96-8.5-42.7-19.5-84.8-30.8-126.1-19,24.5-34.5,51.5-47.1,80.4,3,.7,1.3,2.6.3,4.5-11.8,22.3-22.5,45.2-27.9,69.9-4.8,21.8-8.5,43.7-12.7,65.6-1.4,7.7-3.5,15.3-4,23.1s-4.4,12.7-7.4,18.7-5.9,13.1-8.6,19.8c-1.6,3.8-2.5,7.9-4,11.7-2.6,6.4-7.6,10.2-14.3,10.5s-14.5-.4-22.7-.7c2.5-6.5,4.2-11.9,6.5-17.1s4-9.6,7.1-13.6c9.6-12.5,14.8-26.6,17.7-41.8,7.4-38.3,15.3-76.5,22.4-114.9,1.2-6-.5-12.5-.6-18.8-.1-3.7-.4-7.7.5-11.2a35.6,35.6,0,0,1,5.4-11.5c11.1-15.9,17.6-33.8,23.2-52.1,6.6-21.8,13.4-43.7,20-65.6.7-2.5,3-5.5-.4-8.1-.4-.3-.1-1.7,0-2.5a102.9,102.9,0,0,0-6.4-49.7c-3.1-8-6.1-16-8.9-24.1-4.7-13.1-2.7-25.7,3.7-37.8,3.5-6.5,6.9-13,10.1-19.6a29.8,29.8,0,0,0,2.4-7.3c1.3-6.5,1-11.5-5-17.1-41.8-38.9-77.5-82.9-105.7-132.7-18.7-33.2-37.2-66.7-55.9-99.9-14.1-25.2-30.4-49.1-47.8-72.1-2.1-2.7-3.9-2.8-6.5-.6-9.9,8.8-21.6,13.3-34.7,11.9a54.1,54.1,0,0,0-30.5,5.3c-6.2,3-12.8,5.2-19.5,3.9-5-.9-8.9-.8-12.1,3.3-.2.3-.8.3-1.5.6L21,509.6v-7.3c2.3-9.8,8.6-17.1,15.6-23.8,1-.9,1.9-1.9,2.9-2.9a51.8,51.8,0,0,0,11.6-16.2c1.5-3.2,3.2-6.5,5.7-8.9,8.1-7.7,15.3-15.8,19.8-26.4,2.8-6.7,6.6-8.1,14.2-4.8s14.2,1.6,18.4-6.3a41.4,41.4,0,0,0,3.5-8.8c1.7-6,3.1-12.1,4.6-18.1,1-4.1,2.4-8,6.5-10.1Z"/></clipPath><clipPath id="clip-path-2" transform="translate(38 -373.5)"><rect class="cls-2" x="-9" y="377" width="812.8" height="491.7"/></clipPath><clipPath id="clip-path-3" transform="translate(38 -373.5)"><rect class="cls-2" x="-38" y="854.7" width="812.8" height="491.7"/></clipPath></defs><g class="cls-3"><g id="キリン柄.psd"><g class="cls-4"><image id="giraffe-937622" width="952" height="595" transform="translate(29 3.5) scale(0.85 0.83)" xlink:href="gerah1.png"/></g></g><g id="キリン柄.psd-2" data-name="キリン柄.psd"><g class="cls-5"><image id="giraffe-937622-2" data-name="giraffe-937622" width="952" height="595" transform="translate(0 481.2) scale(0.85 0.83)" xlink:href="gerah2.png"/></g></g></g><path class="cls-1" d="M128.2,376c2.7,1.8,3.7,4.3,3.6,7.5s.2,4.2-.1,6.2c-1.6,10.1,4.6,17,9.7,24.4,1.7,2.4,3.8,1.5,6-.3s5.3-3,7.9-2.7c6.1.7,10.4,6.8,9.9,13.8-.3,3,.7,4.8,2.7,6.9,19.2,20.1,36,42.2,52.9,64.3s35.5,46.8,54.1,69.4,41.2,44.5,67.2,61c22.1,14,46.1,24,70.9,32.2,14.8,4.9,29.5,10.6,42.4,19.7a61.8,61.8,0,0,1,10,9.1c14.1,15.2,27.3,31.4,42.3,45.8,25.5,24.4,55.5,41.4,89.4,51.6,18,5.4,34.1,14,47.2,27.7,7.4,7.7,15.5,14.7,23.1,22.1,20.3,19.5,29.1,43.5,27.4,71.5-1,16.3-1.6,32.5-1.8,48.8a85.1,85.1,0,0,0,5.8,32.3c1,2.4,3.4,4.3,4.1,6.7a120,120,0,0,1,3.8,17.8,109.7,109.7,0,0,1,0,17.2,18.7,18.7,0,0,0,3.4,12.4,11.5,11.5,0,0,1,1.7,4.7c-6.6-2.4-6.9-9.4-10.3-14.1l-.9.3c1,3.9,1.6,7.8,3.1,11.5a107.6,107.6,0,0,0,7,14.5,66.4,66.4,0,0,1,8.7,32.2c.1,1.7.4,3.4.6,5.1v10.2c-.9-.7-2.3-1.4-2.5-2.3-2.8-11.7-8.3-22.2-13.9-32.6s-10.7-19.5-15.4-29.6-8-22.6-6.3-34.9c.5-3.8,2.1-7.7,1.9-11.5-.4-9.6-1.1-19.3-2.4-28.8-2.5-17.6-5.8-35-4-52.9a42.8,42.8,0,0,0-.1-6.2c-.6-6.2-1.9-12.1-7.3-17.1a20.8,20.8,0,0,0-1.3,3.7c-.1,2.8.3,5.7,0,8.4-2.1,20.3-4,40.7-6.4,60.9-2.9,24.5-.5,48,11.5,70.1a253.3,253.3,0,0,1,12.6,28.1c4.4,11.5,5.7,23.4,1.5,35.5a3.2,3.2,0,0,0-.1,1.7c1.2,10.1,2.5,20.3,3.7,30.5,2.6,22.4,4.5,45,8,67.3,3.9,24.5,11.6,48.2,13.9,73,0,.8.1,1.8-.4,2.3-4.8,5.7-5.7,12.8-7.1,19.7a69.6,69.6,0,0,1-4.7,14.2c-3.1,6.2-8.4,9.1-15.6,8.9-4.4,0-8.9,1.1-13.3,1.6h-11c-2.8-4.8-2.5-6.9,2.2-11.8,12.3-12.7,18.6-28.5,22.8-45.2,1.4-5.6.7-11.9.6-17.8-.6-20.2-3.9-40.2-7.4-60a411.2,411.2,0,0,0-56-146,12.2,12.2,0,0,0-2.4-2.7c1.7,7.7,2.1,15.6,6.3,22.6s3.7,14.3,1.8,21.4c-5.4,20.3-11,40.5-17.1,60.6-9.6,31.8-16.2,64.2-23.5,96.5-1.1,5-3.6,9.9-3.9,14.8-.4,8.5-6.6,11.9-12,16.2a2.7,2.7,0,0,0-1.3,1.5c-.7,4.1-1.4,8.1-1.9,12.2-.8,6.7-5.3,11.4-9,16.5a3.2,3.2,0,0,1-1.2.8c-11.3,3.3-22.6,6.4-34.6,4.1a25.8,25.8,0,0,1-3.3-1c0-.6-.1-.9,0-1,6.6-6.5,10.2-14.8,14.3-22.9a96.9,96.9,0,0,1,8.7-13.5c1.3-1.6,2.6-4.4,5.8-3.2.3.1,1.1-1.2,1.5-1.9,29.5-56.4,39.3-116.8,35.2-179.8-1.7-25.1-7.8-49.5-13.9-73.8-3.5-14-6.1-28.2-9.2-42.3a21.7,21.7,0,0,0-.7-2.4c-1.6-4.6-4.2-5.9-8.4-3.6-5.8,3.1-11.3,6.8-16.9,10.3s-9.4,6.2-14.3,8.9-6.1,2-9.7-2.3a5.9,5.9,0,0,0-3.1-1.7c-19.8-2.5-39.7-5.1-59.6-7.2a41.8,41.8,0,0,0-14.1.8c-6.4,1.3-8.1,5.8-6.9,12,2.7,14.1,5.3,28.2,7.1,42.3s2.9,29.5,4.4,44.2a49.9,49.9,0,0,0,2.4,9.2c1.8,5.4,4,10.6,5.5,16.1.6,2.2-.3,4.8-.6,7.3a353.1,353.1,0,0,0,7,119.9c2.3,9.7,4.4,19.6,6.6,29.3,1,4.4,1.9,8.5.9,13.1-2,9.5-3.6,19-5.4,28.5-.5,2.8-2.4,5.1-1.7,8.5.3,1.5-2.2,4.2-4,5.5-6.4,4.4-13.9,6.2-21.5,6.7a67.5,67.5,0,0,1-14.2-.5c-4.7-.6-5.6-2.7-4.3-7.3.5-1.9.2-4.8,1.5-5.9,4.4-3.7,3.3-9.5,6.4-13.9,11.4-16.1,14.6-34.2,12.8-53.7-2.9-32.3-8.4-64.2-14.8-96-8.5-42.7-19.5-84.8-30.8-126.1-19,24.5-34.5,51.5-47.1,80.4,3,.7,1.3,2.6.3,4.5-11.8,22.3-22.5,45.2-27.9,69.9-4.8,21.8-8.5,43.7-12.7,65.6-1.4,7.7-3.5,15.3-4,23.1s-4.4,12.7-7.4,18.7-5.9,13.1-8.6,19.8c-1.6,3.8-2.5,7.9-4,11.7-2.6,6.4-7.6,10.2-14.3,10.5s-14.5-.4-22.7-.7c2.5-6.5,4.2-11.9,6.5-17.1s4-9.6,7.1-13.6c9.6-12.5,14.8-26.6,17.7-41.8,7.4-38.3,15.3-76.5,22.4-114.9,1.2-6-.5-12.5-.6-18.8-.1-3.7-.4-7.7.5-11.2a35.6,35.6,0,0,1,5.4-11.5c11.1-15.9,17.6-33.8,23.2-52.1,6.6-21.8,13.4-43.7,20-65.6.7-2.5,3-5.5-.4-8.1-.4-.3-.1-1.7,0-2.5a102.9,102.9,0,0,0-6.4-49.7c-3.1-8-6.1-16-8.9-24.1-4.7-13.1-2.7-25.7,3.7-37.8,3.5-6.5,6.9-13,10.1-19.6a29.8,29.8,0,0,0,2.4-7.3c1.3-6.5,1-11.5-5-17.1-41.8-38.9-77.5-82.9-105.7-132.7-18.7-33.2-37.2-66.7-55.9-99.9-14.1-25.2-30.4-49.1-47.8-72.1-2.1-2.7-3.9-2.8-6.5-.6-9.9,8.8-21.6,13.3-34.7,11.9a54.1,54.1,0,0,0-30.5,5.3c-6.2,3-12.8,5.2-19.5,3.9-5-.9-8.9-.8-12.1,3.3-.2.3-.8.3-1.5.6L21,509.6v-7.3c2.3-9.8,8.6-17.1,15.6-23.8,1-.9,1.9-1.9,2.9-2.9a51.8,51.8,0,0,0,11.6-16.2c1.5-3.2,3.2-6.5,5.7-8.9,8.1-7.7,15.3-15.8,19.8-26.4,2.8-6.7,6.6-8.1,14.2-4.8s14.2,1.6,18.4-6.3a41.4,41.4,0,0,0,3.5-8.8c1.7-6,3.1-12.1,4.6-18.1,1-4.1,2.4-8,6.5-10.1Z" transform="translate(38 -373.5)"/></svg>