<svg xmlns="http://www.w3.org/2000/svg" xmlns:xlink="http://www.w3.org/1999/xlink" viewBox="0 0 4445.5 5693"><defs><style>.cls-1,.cls-10,.cls-15,.cls-16,.cls-17,.cls-26,.cls-4,.cls-5{fill:#fff;}.cls-14,.cls-2,.cls-21,.cls-22,.cls-36,.cls-39,.cls-40,.cls-6{fill:#bdccd4;}.cls-19,.cls-20,.cls-3,.cls-38{fill:none;}.cls-16,.cls-3,.cls-4,.cls-48{stroke:#fff;}.cls-10,.cls-14,.cls-16,.cls-17,.cls-18,.cls-19,.cls-20,.cls-21,.cls-3,.cls-38,.cls-4,.cls-47,.cls-48{stroke-miterlimit:10;}.cls-20,.cls-21,.cls-3,.cls-4{stroke-width:2px;}.cls-22,.cls-5{font-size:56px;}.cls-15,.cls-22,.cls-36,.cls-39,.cls-42,.cls-43,.cls-44,.cls-45,.cls-5,.cls-6{font-family:Impact;}.cls-6{font-size:101px;}.cls-36,.cls-37,.cls-39,.cls-6{text-decoration:underline;}.cls-7{font-size:30px;}.cls-25,.cls-28,.cls-34,.cls-37,.cls-7{font-family:TsukuARdGothicStd-R-90ms-RKSJ-H, FOT-TsukuARdGothic Std;}.cls-31,.cls-8{letter-spacing:-0.5em;}.cls-30,.cls-9{letter-spacing:0.25em;}.cls-10,.cls-17,.cls-18,.cls-19,.cls-38{stroke:#000;}.cls-11{font-size:62.32px;font-family:BoucherieSansInline, Boucherie Sans Inline;}.cls-12{letter-spacing:0.06em;}.cls-13{fill:#b3b3b3;}.cls-14{stroke:#3fa9f5;}.cls-15{font-size:90.89px;}.cls-17,.cls-18,.cls-19,.cls-47,.cls-48{stroke-width:5px;}.cls-20,.cls-21{stroke:#bdccd4;}.cls-23{fill:url(#名称未設定グラデーション_17);}.cls-24{fill:#f5f94b;opacity:0.55;}.cls-25,.cls-46{font-size:34px;}.cls-26{font-size:162.64px;font-family:VDL-LogoJrBlack-Black-90ms-RKSJ-H, VDL-LogoJrBlack;}.cls-27{letter-spacing:-0.5em;}.cls-28{font-size:24px;}.cls-29,.cls-30,.cls-31,.cls-34{font-size:23px;}.cls-32{letter-spacing:-0.01em;}.cls-33{letter-spacing:0.13em;}.cls-35{letter-spacing:0.09em;}.cls-36{font-size:100px;}.cls-37{font-size:29px;}.cls-39{font-size:110px;}.cls-40{font-size:90px;}.cls-40,.cls-46,.cls-49{font-family:KozGoPr6N-Regular-90ms-RKSJ-H, Kozuka Gothic Pr6N;}.cls-41{letter-spacing:-0.26em;}.cls-42,.cls-47,.cls-48{fill:#ff931e;}.cls-44{fill:#3fa9f5;}.cls-45{fill:#ff7bac;}.cls-47{stroke:#ff931e;}.cls-49{font-size:21px;}</style><linearGradient id="名称未設定グラデーション_17" x1="157" y1="1428" x2="750" y2="1428" gradientTransform="translate(828.5 2777.5) rotate(180)" gradientUnits="userSpaceOnUse"><stop offset="0" stop-color="#fff"/><stop offset="0.08" stop-color="#fff" stop-opacity="0.99"/><stop offset="0.12" stop-color="#fff" stop-opacity="0.96"/><stop offset="0.16" stop-color="#fff" stop-opacity="0.9"/><stop offset="0.2" stop-color="#fff" stop-opacity="0.82"/><stop offset="0.23" stop-color="#fff" stop-opacity="0.72"/><stop offset="0.26" stop-color="#fff" stop-opacity="0.59"/><stop offset="0.29" stop-color="#fff" stop-opacity="0.43"/><stop offset="0.31" stop-color="#fff" stop-opacity="0.26"/><stop offset="0.34" stop-color="#fff" stop-opacity="0.06"/><stop offset="0.35" stop-color="#fff" stop-opacity="0"/></linearGradient></defs><g id="CONTACT"><rect class="cls-1" x="1887" y="4577" width="700" height="1079"/><rect class="cls-2" x="1888.76" y="5497" width="698.66" height="158"/><path class="cls-1" d="M-153.58,5202v156H-850.24V5202h696.66m2-2H-852.24v160h700.66V5200Z" transform="translate(2740 296)"/><line class="cls-3" x1="1856" y1="5576" x2="2708" y2="5576"/><line class="cls-1" x1="1856" y1="5576" x2="2708" y2="5576"/><line class="cls-4" x1="2238.09" y1="5693" x2="2238.09" y2="5495"/><text class="cls-5" transform="translate(2333.21 5556.43) scale(0.93 1)">WORKS</text><text class="cls-5" transform="translate(1970.73 5556.43) scale(0.93 1)">SURVICE</text><text class="cls-5" transform="translate(2356.26 5637.43) scale(0.93 1)">HOME</text><text class="cls-5" transform="translate(1995.96 5637.43) scale(0.93 1)">PRICE</text><text class="cls-6" transform="translate(2041.68 4796.03)">CONTACT</text><text class="cls-7" transform="translate(2068 4903.78)">お問い合わせやご依頼は<tspan x="-112.5" y="52.5">下記メールアドレスよりご連絡ください</tspan><tspan class="cls-8" x="427.5" y="52.5">。</tspan><tspan x="-67.5" y="105">原則翌日までにご連絡いたします</tspan><tspan class="cls-8" x="382.5" y="105">。</tspan><tspan x="-101.73" y="157.5">※料金</tspan><tspan class="cls-9" x="-11.73" y="157.5">は</tspan><tspan x="25.77" y="157.5">[PRICE</tspan><tspan class="cls-9" x="125.34" y="157.5">]</tspan><tspan x="146.73" y="157.5">よりご確認ください</tspan><tspan class="cls-8" x="416.73" y="157.5">。</tspan></text><text class="cls-7" transform="translate(2046.47 5161.32)">takemura1293@gmail.com</text><rect class="cls-10" x="1887" y="4577" width="700" height="107"/><text class="cls-11" transform="translate(2043.48 4662.62)">YUKI TAKEMUL<tspan class="cls-12" x="351.58" y="0">A</tspan></text><rect class="cls-13" x="2479.08" y="4601" width="80" height="55"/><rect class="cls-1" x="2469.83" y="4612.82" width="99.17" height="9.09"/><rect class="cls-1" x="2469.83" y="4635.55" width="99.17" height="9.09"/><rect class="cls-14" x="2744.5" y="4266.5" width="651" height="95"/><polygon class="cls-10" points="2746.38 4362 2746.38 4536.97 2586.67 4648 2745.57 4645.9 2746.38 4616.53 2746.38 4645.03 3396 4645.03 3396 4362 2746.38 4362"/><rect class="cls-14" x="2744.5" y="4361.5" width="651" height="95"/><rect class="cls-14" x="2744.5" y="4458.5" width="651" height="95"/><rect class="cls-14" x="2745.5" y="4553.5" width="651" height="95"/><text class="cls-15" transform="translate(2921.51 4346.37)">SURVICE</text><text class="cls-15" transform="translate(2939.51 4444.37)">WORKS</text><text class="cls-15" transform="translate(2978.51 4635.37)">HOME</text><text class="cls-15" transform="translate(2978.51 4543.37)">PRICE</text><rect class="cls-16" x="1899.18" y="4581.18" width="80.32" height="80.32"/><ellipse class="cls-17" cx="1925.4" cy="4608.71" rx="12.97" ry="24.17"/><line class="cls-18" x1="1925.4" y1="4634.65" x2="1925.5" y2="4661.5"/><line class="cls-19" x1="1938.5" y1="4610.48" x2="1970.5" y2="4610.48"/><rect class="cls-1" x="1905.36" y="4581" width="67.64" height="27.12"/><line class="cls-19" x1="1954.5" y1="4609.5" x2="1954.5" y2="4661.5"/></g><g id="ナビゲーション"><rect class="cls-1" x="2742" y="4038" width="748" height="158"/><path class="cls-2" d="M749,3743v156H3V3743H749m2-2H1v160H751V3741Z" transform="translate(2740 296)"/><line class="cls-20" x1="2707" y1="4117" x2="3619" y2="4117"/><line class="cls-2" x1="2707" y1="4117" x2="3619" y2="4117"/><line class="cls-21" x1="3116" y1="4234" x2="3116" y2="4036"/><text class="cls-22" transform="translate(3217.81 4097.43)">WORKS</text><text class="cls-22" transform="translate(2829.81 4097.43)">SURVICE</text><text class="cls-22" transform="translate(3201.81 4178.43)">CONTACT</text><text class="cls-22" transform="translate(2856.81 4178.43)">PRICE</text><rect class="cls-2" x="825" y="582" width="748" height="158"/><path class="cls-1" d="M-1168,287V443h-746V287h746m2-2h-750V445h750V285Z" transform="translate(2740 296)"/><line class="cls-3" x1="790" y1="661" x2="1702" y2="661"/><line class="cls-1" x1="790" y1="661" x2="1702" y2="661"/><line class="cls-4" x1="1199" y1="778" x2="1199" y2="580"/><text class="cls-5" transform="translate(1300.81 641.43)">WORKS</text><text class="cls-5" transform="translate(912.81 641.43)">SURVICE</text><text class="cls-5" transform="translate(1284.81 722.43)">CONTACT</text><text class="cls-5" transform="translate(939.81 722.43)">PRICE</text><text class="cls-7" transform="translate(2921.06 1822.28)">あああああああああああ<tspan x="-45" y="52.5">ああああああああああああああ</tspan><tspan x="-30" y="105">あああああああああああああ</tspan></text><rect class="cls-23" x="78.5" y="974.5" width="593" height="750" transform="translate(4464.5 1270.5) rotate(90)"/></g><g id="コンタクト"><image width="720" height="575" transform="translate(3017 3946) scale(0.15)" xlink:href="../../../Downloads/%E3%83%80%E3%82%A6%E3%83%B3%E3%83%AD%E3%83%BC%E3%83%89.png"/><image width="720" height="575" transform="translate(3124 3950.14) scale(0.14)" xlink:href="../../../Downloads/%E3%83%80%E3%82%A6%E3%83%B3%E3%83%AD%E3%83%BC%E3%83%89%20(2).png"/></g><g id="アバウト"><rect class="cls-24" x="2769" y="2614.45" width="696" height="1316.55"/><rect class="cls-2" x="0.03" y="491" width="749" height="734"/><polygon class="cls-2" points="1495.03 489.42 747.51 111 0 489.42 1495.03 489.42"/><text class="cls-25" transform="translate(3041.9 2666.55)">竹村 勇輝</text><image width="370" height="320" transform="translate(2934.44 2694) scale(0.98)" xlink:href="../../%E3%83%95%E3%83%AA%E3%83%BC%E3%83%A9%E3%83%B3%E3%82%B9%E7%B3%BB/%E7%AB%B9%E6%9D%91%E5%86%99%E7%9C%9F2.png"/><text class="cls-26" transform="translate(2869.08 2911.6)">（仮<tspan class="cls-27" x="325.27" y="0">）</tspan></text><text class="cls-28" x="2740" y="296"><tspan x="2788.01" y="3125.36">フ</tspan><tspan class="cls-29" x="2812.01" y="3124.98">リーランス</tspan><tspan class="cls-30" x="2927.01" y="3124.98">の</tspan><tspan class="cls-29" x="2955.76" y="3124.98">we</tspan><tspan class="cls-30" x="2984.16" y="3124.98">b</tspan><tspan class="cls-29" x="3003.99" y="3124.98">デザイナー兼プログラマー</tspan><tspan class="cls-31" x="3279.99" y="3124.98">。</tspan><tspan class="cls-29"><tspan x="2788.01" y="3206.73">新卒で教育業界に従事。we</tspan><tspan class="cls-32" x="3069.41" y="3206.73">b</tspan><tspan x="3083.26" y="3206.73">サイトデザインや広報物の作成を</tspan><tspan x="2788.01" y="3246.98">担当した際に大きな反響を得る。そこでデザインの可能性を感じ</tspan><tspan class="cls-8" x="3455.01" y="3246.98">、</tspan><tspan x="2788.01" y="3287.23">独学で勉強後フリーランスへ</tspan><tspan class="cls-8" x="3087.01" y="3287.23">。</tspan><tspan class="cls-9" x="2788.01" y="3367.73">1つ1</tspan><tspan x="2854.89" y="3367.73">つの案件に対して真摯にクライアントと向き合い</tspan><tspan class="cls-8" x="3360.89" y="3367.73">、</tspan><tspan x="2788.01" y="3407.98">デザインからコーディングまで一貫して請け負うことで</tspan><tspan class="cls-8" x="3363.01" y="3407.98">、</tspan><tspan x="2788.01" y="3448.23">ご要望に沿った確か</tspan><tspan class="cls-9" x="2995.01" y="3448.23">な</tspan><tspan x="3023.76" y="3448.23">we</tspan><tspan class="cls-33" x="3052.16" y="3448.23">b</tspan><tspan x="3069.23" y="3448.23">制作を大切にしています</tspan><tspan class="cls-8" x="3322.23" y="3448.23">。</tspan></tspan></text><text class="cls-34" transform="translate(3080.5 3549.36)">大阪府</text><text class="cls-34" transform="translate(2977.73 3795.36)">we<tspan class="cls-35" x="28.4" y="0">b</tspan><tspan x="44.55" y="0">制作コンサルティング</tspan><tspan x="91.28" y="40.25">デザイン</tspan><tspan x="68.28" y="80.5">コーディング</tspan></text><text class="cls-34" transform="translate(2978.06 3672.36)">takemura1293@gmail.com</text><text class="cls-36" transform="translate(2997 2548.38)">About</text><text class="cls-37" transform="translate(3042.5 3069.91)">自己紹介</text><text class="cls-37" transform="translate(3071.5 3509.91)">所在地</text><text class="cls-37" transform="translate(3028 3629.91)">お問い合わせ</text><text class="cls-37" transform="translate(3057 3749.91)">事業内容</text></g><g id="メイン_" data-name="メイン１"><polygon class="cls-10" points="3745 481 3745 1443 3465.08 1662.61 3745 1662.61 3745 1663 4445 1663 4445 481 3745 481"/><polygon class="cls-1" points="2492.08 3172 2492.08 2210 2772 1990.39 2492.08 1990.39 2492.08 1990 1792.08 1990 1792.08 3172 2492.08 3172"/><polygon class="cls-38" points="2492.08 3172 2492.08 2210 2772 1990.39 2492.08 1990.39 2492.08 1990 1792.08 1990 1792.08 3172 2492.08 3172"/><polygon class="cls-1" points="3745 3406 3745 2444 3465.08 2224.39 3745 2224.39 3745 2224 4445 2224 4445 3406 3745 3406"/><polygon class="cls-38" points="3745 3406 3745 2444 3465.08 2224.39 3745 2224.39 3745 2224 4445 2224 4445 3406 3745 3406"/><text class="cls-39" transform="translate(2913.23 1565.57)">Contents</text><text class="cls-40" transform="translate(2768.32 1735.96)"><tspan class="cls-41">・</tspan><tspan class="cls-42" x="66.6" y="1.37">H</tspan><tspan class="cls-43" x="116.57" y="1.37">omepage</tspan></text><text class="cls-40" transform="translate(2768.32 1962.96)"><tspan class="cls-41">・</tspan><tspan class="cls-44" x="66.6" y="1.37">B</tspan><tspan class="cls-43" x="116.3" y="1.37">log</tspan></text><text class="cls-40" transform="translate(2768.32 2234.96)"><tspan class="cls-41">・</tspan><tspan class="cls-45" x="66.6" y="1.37">E</tspan><tspan class="cls-43" x="104" y="1.37">Csite</tspan></text><text class="cls-46" transform="translate(2833.96 1777.47)">ホームページ作成</text><text class="cls-40" transform="translate(3792.32 608.96)"><tspan class="cls-41">・</tspan><tspan class="cls-42" x="66.6" y="1.37">Homepage</tspan></text><text class="cls-46" transform="translate(3857.96 650.47)">ホームページ作成</text><text class="cls-46" transform="translate(2838.96 2008.47)">ブログ作成</text><text class="cls-40" transform="translate(1838.32 2116.96)"><tspan class="cls-41">・</tspan><tspan class="cls-44" x="66.6" y="1.37">Blog</tspan></text><text class="cls-46" transform="translate(1908.96 2162.47)">ブログ作成</text><text class="cls-46" transform="translate(2838.96 2273.47)">オンラインショップサイト作成</text><text class="cls-40" transform="translate(3768.32 2350.96)"><tspan class="cls-41">・</tspan><tspan class="cls-45" x="66.6" y="1.37">ECsite</tspan></text><text class="cls-46" transform="translate(3838.96 2389.47)">オンラインショップサイト作成</text><line class="cls-47" x1="3566" y1="1896.5" x2="4267" y2="1892.5"/><polygon class="cls-48" points="3916.5 1927 3880.49 1881.5 3952.51 1881.5 3916.5 1927"/><line class="cls-47" x1="4432.04" y1="1628.27" x2="3782.07" y2="1635.73"/><polygon class="cls-48" points="4106.88 1599.5 4140.51 1644.82 4073.74 1645.18 4106.88 1599.5"/><line class="cls-47" x1="4431.04" y1="3366.27" x2="3781.07" y2="3373.73"/><polygon class="cls-48" points="4105.88 3337.5 4139.51 3382.82 4072.74 3383.18 4105.88 3337.5"/><line class="cls-47" x1="2468.04" y1="3128.27" x2="1818.07" y2="3135.73"/><polygon class="cls-48" points="2142.88 3099.5 2176.51 3144.82 2109.74 3145.18 2142.88 3099.5"/><line class="cls-47" x1="3709" y1="2059.5" x2="4410" y2="2055.5"/><polygon class="cls-48" points="4059.5 2090 4023.49 2044.5 4095.51 2044.5 4059.5 2090"/><line class="cls-47" x1="3552" y1="1992.5" x2="4253" y2="1988.5"/><polygon class="cls-48" points="3902.5 2023 3866.49 1977.5 3938.51 1977.5 3902.5 2023"/><text class="cls-49" transform="translate(3367.71 410.82)">MENU</text><polygon points="3689 1812.62 3729.77 1742 3648.23 1742 3689 1812.62"/></g><g id="ヘッダー"><text class="cls-11" transform="translate(2921.48 397.62)">YUKI TAKEMUL<tspan class="cls-12" x="351.58" y="0">A</tspan></text><rect class="cls-13" x="3357.08" y="336" width="80" height="55"/><rect class="cls-1" x="3347.83" y="347.82" width="99.17" height="9.09"/><rect class="cls-1" x="3347.83" y="370.55" width="99.17" height="9.09"/><rect class="cls-14" x="3622.5" y="1.5" width="651" height="95"/><polygon class="cls-10" points="3624.38 97 3624.38 271.97 3464.67 383 3623.57 380.9 3624.38 351.54 3624.38 380.03 4274 380.03 4274 97 3624.38 97"/><rect class="cls-14" x="3622.5" y="96.5" width="651" height="95"/><rect class="cls-14" x="3622.5" y="193.5" width="651" height="95"/><rect class="cls-14" x="3623.5" y="288.5" width="651" height="95"/><text class="cls-15" transform="translate(3781.51 81.37)">SURVICE</text><text class="cls-15" transform="translate(3807.51 179.37)">WORKS</text><text class="cls-15" transform="translate(3781.51 375.37)">CONTACT</text><text class="cls-15" transform="translate(3838.51 281.37)">PRICE</text></g><g id="ロゴ"><rect class="cls-16" x="2777.18" y="316.18" width="80.32" height="80.32"/><ellipse class="cls-17" cx="2803.4" cy="343.71" rx="12.97" ry="24.17"/><line class="cls-18" x1="2803.4" y1="369.65" x2="2803.5" y2="396.5"/><line class="cls-19" x1="2816.5" y1="345.48" x2="2848.5" y2="345.48"/><rect class="cls-1" x="2783.36" y="316" width="67.64" height="27.12"/><line class="cls-19" x1="2832.5" y1="344.5" x2="2832.5" y2="396.5"/></g></svg>