<?xml version="1.0" encoding="utf-8"?>
<!-- Generator: Adobe Illustrator 24.1.0, SVG Export Plug-In . SVG Version: 6.00 Build 0)  -->
<svg version="1.1" id="レイヤー_1" xmlns="http://www.w3.org/2000/svg" xmlns:xlink="http://www.w3.org/1999/xlink" x="0px"
	 y="0px" viewBox="0 0 416 282" style="enable-background:new 0 0 416 282;" xml:space="preserve">
<g>
	<path d="M258.17,268.35l-9.06-1.88l-1.88-3.93c0-0.57,0.4-1.2,1.2-1.88c0.68-0.34,1.03-1.08,1.03-2.22
		c-1.48-1.37-2.85-2.34-4.1-2.91c-1.71-0.68-2.56-1.94-2.56-3.76c0-8.43-0.17-16.92-0.51-25.46c-0.34-7.97-1.59-16.35-3.76-25.12
		c-1.71-3.3-2.45-6.89-2.22-10.76c0.11-3.65-1.42-6.61-4.61-8.89c-0.11,0-0.26-0.03-0.43-0.08c-0.17-0.06-0.31-0.09-0.43-0.09
		l-2.05,0.68c-1.03,0.34-1.54,1.88-1.54,4.61c1.14,1.48,1.2,2.85,0.17,4.1c-0.91,0.68-1.42,1.25-1.54,1.71
		c-0.23,0.68-0.68,1.2-1.37,1.54c-0.8,2.39-2.16,4.33-4.1,5.81c-1.94,1.59-3.42,3.25-4.44,4.96c0,0.34-0.03,0.68-0.09,1.03
		c-0.06,0.34-0.09,0.57-0.09,0.68c0,0.23-0.03,0.46-0.09,0.68c-0.06,0.23-0.09,0.4-0.09,0.51c0,0.57,0.4,0.85,1.2,0.85
		c0.57,0,1.48-0.46,2.73-1.37c0.57,0.46,0.57,1.14,0,2.05l-3.08,1.37c-0.8,0-1.2-0.23-1.2-0.68l-1.88-2.05
		c-1.03,0.68-1.37,1.88-1.03,3.59c1.14,3.19,1.25,6.09,0.34,8.71c-0.91,2.96-1.37,5.7-1.37,8.2c-0.57,2.96-1.77,5.52-3.59,7.69
		c-1.82,2.16-2.34,4.44-1.54,6.83c2.39,1.14,3.7,2.62,3.93,4.44c0,1.59,0.23,3.3,0.68,5.13c0.46,0.46,0.85,0.68,1.2,0.68l3.59-1.71
		c-3.42-3.99-4.39-9.23-2.9-15.72c1.59-7.18,2.68-13.04,3.25-17.6c0-0.46-0.29-0.97-0.85-1.54c-0.46-0.23-0.68-0.51-0.68-0.85
		c0-0.57,0.28-0.97,0.85-1.2c2.16,0,3.59-0.23,4.27-0.68c2.05-3.08,3.19-6.49,3.42-10.25c0-3.53,1.48-6.61,4.44-9.23
		c1.14-1.82,1.94-3.53,2.39-5.13c0.34-1.48,1.08-3.02,2.22-4.61h1.03c-1.25,4.33-3.3,8.77-6.15,13.33
		c-2.85,4.33-4.38,8.89-4.61,13.67c-3.42,5.01-5.98,10.76-7.69,17.26c-1.59,6.27-1.65,12.3-0.17,18.11
		c3.76,5.13,5.58,8.66,5.47,10.59c-1.71,1.37-3.76,1.77-6.15,1.2c-0.91-0.11-3.13-0.63-6.66-1.54c-1.14-1.03-1.25-2.45-0.34-4.27
		c0.8-1.59,1.03-3.3,0.68-5.13c0-0.11-0.74-0.4-2.22-0.85c-1.14-5.92-0.4-12.13,2.22-18.62c2.39-6.61,3.36-12.99,2.9-19.14
		c1.59-5.47,2.39-10.65,2.39-15.55c0-3.3,0.23-8.37,0.68-15.21c-4.44-0.68-9.11-0.97-14.01-0.85c-5.7,0-10.71-0.63-15.04-1.88
		c-5.35,0-10.82-1.03-16.4-3.08c-3.3-1.03-8.09-2.9-14.35-5.64l-2.73,2.9l-6.83-4.27c-3.87,3.53-7.92,6.55-12.13,9.06
		c-2.05,1.37-4.19,2.71-6.41,4.01c-2.22,1.31-4.36,2.65-6.41,4.02c-2.85,1.14-4.5,2.91-4.96,5.3c-0.34,2.28-1.2,4.39-2.56,6.32
		c-1.14,1.82-1.88,3.13-2.22,3.93c-0.46,1.14-1.48,1.88-3.08,2.22l-2.39-1.54c-0.11,0-0.26,0.03-0.43,0.08
		c-0.17,0.06-0.31,0.09-0.43,0.09c0,0.11-0.11,0.4-0.34,0.85c1.59,1.14,2.68,2.51,3.25,4.1c0.46,1.59,1.59,2.56,3.42,2.9
		c0,0.46,0.11,0.68,0.34,0.68l-2.39,3.76c0,1.03,0.68,1.54,2.05,1.54l2.22,0.51l0.34,0.34c0,0.46-0.23,0.8-0.68,1.03
		c-0.23,0-0.51-0.06-0.85-0.17c-0.34-0.11-0.57-0.17-0.68-0.17c-1.03,1.03-1.54,1.48-1.54,1.37c-0.8,2.85,0.34,6.09,3.42,9.74
		c1.48,1.59,2.33,3.13,2.56,4.61c0,1.59,0.57,2.96,1.71,4.1c0,0.8-0.11,1.31-0.34,1.54c-0.46,0.23-0.8,0.34-1.02,0.34
		c-0.68,0-1.03-0.23-1.03-0.68c0-0.46-0.23-0.68-0.68-0.68c-1.14,4.21-0.97,7.58,0.51,10.08c1.03,1.48,2.45,1.99,4.27,1.54
		c1.59-0.34,2.79,0.29,3.59,1.88c0.23,0.46,1.25,1.59,3.08,3.42l4.27-1.37c-1.48-1.37-3.3-3.59-5.47-6.66
		c-1.82-2.51-2.73-5.47-2.73-8.88c-2.96-5.47-4.56-11.39-4.78-17.77c-0.46-6.38,0.74-12.08,3.59-17.09
		c6.61-4.9,11.45-10.2,14.52-15.89c2.85-5.58,7.06-10.82,12.64-15.72c0,0.23,0.06,0.46,0.17,0.68c-4.9,5.58-10.02,13.1-15.38,22.55
		c-11.85,7.06-16.52,16.86-14.01,29.39c0.57,3.3,1.77,7.06,3.59,11.28c1.25,3.19,2.28,6.66,3.08,10.42
		c2.05,2.39,4.27,4.61,6.66,6.66c2.16,1.94,3.82,4.44,4.96,7.52c-2.05,1.37-4.27,1.77-6.66,1.2c-1.14-0.11-2.31-0.31-3.5-0.6
		c-1.2-0.29-2.36-0.6-3.5-0.94c-0.68-1.14-1.03-2.73-1.03-4.78c0-1.82-1.08-3.13-3.25-3.93h-5.81c0-14.01-3.25-27.45-9.74-40.32
		c-1.94-6.49-1.54-10.71,1.2-12.64c1.71-1.71,3.93-4.16,6.66-7.35c1.94-2.16,3.13-4.96,3.59-8.37c-2.96,1.48-5.52,3.53-7.69,6.15
		c-2.28,2.73-4.67,4.9-7.18,6.49c0,0.11-1.14,1.08-3.42,2.91c-4.67,3.08-8.88,7.18-12.64,12.3c-1.59,0.46-3.13,0.68-4.61,0.68
		c-1.71,0-3.02,0.57-3.93,1.71c-0.34,0-0.85,0.17-1.54,0.51c0,0.11-0.23,0.4-0.68,0.85c1.48,1.48,2.11,1.99,1.88,1.54
		c0.68,5.35,0,10.59-2.05,15.72c-2.05,5.12-2.9,10.25-2.56,15.38c0.23,0,0.34,0.23,0.34,0.68l3.93,1.03l2.22,5.3
		c0.11,0.91,1.02,1.82,2.73,2.73l4.27-0.85c-4.1-5.24-6.15-11.68-6.15-19.31c0-7.52,0.51-14.7,1.54-21.53
		c1.48-1.94,2.28-2.91,2.39-2.91c-1.82,5.35-2.79,10.94-2.9,16.75c0,6.84,0.28,12.53,0.85,17.09c0.91,3.08,2.9,5.64,5.98,7.69
		c3.08,2.28,4.61,5.01,4.61,8.2l-0.34,0.51c-6.27,1.25-11.33,1.08-15.21-0.51c-0.8-1.37-0.68-3.02,0.34-4.96
		c0.68-1.71,0.4-3.25-0.85-4.61c-0.46-0.23-0.8-0.46-1.03-0.68l-3.59,1.37l-1.88-1.54c1.03-2.85,1.31-5.81,0.85-8.88
		c-0.34-3.08,0-6.15,1.03-9.23c1.48-6.26,1.77-12.64,0.85-19.14c-0.91-6.15-0.8-12.42,0.34-18.8c2.05-1.14,4.56-2.9,7.52-5.3
		c2.62-1.94,4.39-4.38,5.3-7.35c3.53-3.99,4.61-9.34,3.25-16.06c-4.56-5.7-8.14-12.25-10.76-19.65c-2.85-7.4-3.3-14.69-1.37-21.87
		c0-0.8-0.28-1.2-0.85-1.2c-3.08,8.54-3.13,17.31-0.17,26.31c2.85,9,3.02,17.77,0.51,26.31c0.8,2.85,1.2,5.24,1.2,7.18
		c0,0.23,0.17,2.39,0.51,6.49c0,1.37-0.4,1.65-1.2,0.85c-1.94-5.81-2.33-12.02-1.2-18.62c1.02-6.38,0.74-12.42-0.85-18.11
		c-0.91-2.96-1.37-6.55-1.37-10.76c0-4.1-0.46-7.52-1.37-10.25c-0.68-1.03-1.2-1.03-1.54,0c-4.9,5.01-6.44,10.14-4.61,15.38
		c1.71,8.2,1.25,15.83-1.37,22.9c-2.62,7.18-2.16,14.75,1.37,22.72c1.25,3.42,1.48,6.78,0.68,10.08c-1.02,3.99-1.54,7.23-1.54,9.74
		c0,0.57,0.28,0.85,0.85,0.85l3.59-1.54l1.03-1.54l-1.2,5.47c0.11,0-0.51-0.46-1.88-1.37h-0.34l-2.73,1.37
		c-1.71-2.85-1.82-6.09-0.34-9.74c1.37-3.42,1.37-6.66,0-9.74c-0.34-6.49-0.65-13.04-0.94-19.65c-0.28-6.61-0.54-13.33-0.77-20.16
		c-0.46-13.33,2.28-26.03,8.2-38.1c5.35-11.16,14.35-19.88,27-26.14c4.1-2.05,8.54-3.59,13.33-4.61c2.39-0.34,4.76-0.77,7.09-1.28
		c2.33-0.51,4.64-0.94,6.92-1.28c4.21-0.23,9.06-0.17,14.52,0.17c2.16,0.23,4.41,0.48,6.75,0.77c2.34,0.29,4.7,0.54,7.09,0.77
		c8.32,1.02,17.14,2.96,26.48,5.81c8.88,2.85,17.54,4.27,25.97,4.27c2.28,3.42,1.88,7.97-1.2,13.67l-2.56,1.37l-2.05-0.68
		l-1.88-11.79c-0.23-0.46-0.63-0.68-1.2-0.68c-1.82,4.33-1.82,9.51,0,15.55c0.34,1.94,1.14,2.96,2.39,3.08
		c2.39-2.05,4.61-3.65,6.66-4.78c2.28-1.14,3.82-3.02,4.61-5.64c0-1.14-0.23-2.96-0.68-5.47c-0.46-1.71-0.11-3.47,1.03-5.3
		c6.38,0,13.27-2.96,20.68-8.89l3.42,4.44c1.37,0.46,2.56,0.23,3.59-0.68c0.23,0,0.34-0.29,0.34-0.85l-4.61-3.42
		c0-1.25,1.54-2.34,4.61-3.25l3.59,6.15l3.08-1.03c0.46-0.46,0.68-0.74,0.68-0.85l-5.3-5.13l5.64-4.1c0.57,1.71,0.86,3.13,0.86,4.27
		c0,1.71,1.08,2.73,3.25,3.08l4.61-2.39l-2.39-4.1c-2.51-0.57-3.53-0.85-3.08-0.85l-1.54-1.03l4.61-4.27
		c0.57,0.23,1.08,1.42,1.54,3.59l3.42,3.59l1.71,0.68l1.88-0.51c1.94,5.13,4.96,9.85,9.06,14.18c3.87,4.33,5.64,9.57,5.3,15.72
		c1.71,1.71,3.13,3.7,4.27,5.98c1.03,2.28,2.51,4.16,4.44,5.64c1.03,0,1.77-0.63,2.22-1.88c-2.62-3.19-4.67-7.06-6.15-11.62
		c-0.57-4.44-1.71-8.71-3.42-12.81c-1.59-3.87-4.78-7.06-9.57-9.57c-0.68-0.91-1.48-1.77-2.39-2.56c-1.03-1.03-1.77-1.88-2.22-2.56
		c0-2.05-1.25-3.99-3.76-5.81c-1.82-0.46-3.42-1.54-4.78-3.25l7-4.27h0.51c0.57,0.57,0.91,1.03,1.03,1.37
		c-1.03,2.39-0.63,4.73,1.2,7.01c1.03,0.8,1.94,1.25,2.73,1.37l3.42-2.05c1.25-1.25,0.63-2.96-1.88-5.13
		c-0.57-0.57-1.37-1.08-2.39-1.54c-1.02-0.11-1.88-0.57-2.56-1.37c-0.34-0.34-0.51-0.63-0.51-0.85l8.2-4.27
		c1.14,1.59,1.71,3.42,1.71,5.47c0,2.16,1.03,3.59,3.08,4.27l3.42-1.54c0.34,0,0.74-0.57,1.2-1.71c-0.23-2.28-1.82-4.16-4.79-5.64
		c-0.46,0-0.88-0.03-1.28-0.09c-0.4-0.06-0.71-0.09-0.94-0.09c-0.34-0.34-0.63-0.74-0.85-1.2l8.37-3.76
		c0.34,1.37,0.51,2.96,0.51,4.78c0,1.94,0.97,3.3,2.91,4.1c0.34,0.34,0.68,0.51,1.03,0.51l2.73-0.85c0.34,0,0.51,0.29,0.51,0.85
		c-1.48,1.14-2.28,2.05-2.39,2.73c1.82,5.13,4.16,8.37,7.01,9.74c1.14,0.57,1.82,0.85,2.05,0.85c0.68,0,1.03-0.11,1.03-0.34
		c-0.68-1.48-1.37-3.02-2.05-4.61c-0.68-1.6-1.37-3.19-2.05-4.78c-0.91-2.05-2.39-5.35-4.44-9.91c-0.46-1.03-1.25-1.65-2.39-1.88
		c-1.25-0.11-2.22-0.68-2.91-1.71l7.18-2.56l3.59,9.4l4.61-1.71l-6.15-7.69l5.47-1.37c-0.57,2.96,0.57,5.81,3.42,8.54l4.61-1.88
		c-1.25-3.08-3.42-5.07-6.49-5.98c-0.11-0.34-0.17-0.57-0.17-0.68c-0.11-0.23-0.17-0.46-0.17-0.68l5.81-1.37
		c0.11,0.11,0.23,0.17,0.34,0.17c0,0.11,0.11,0.17,0.34,0.17c0.46,4.78,1.65,7.52,3.59,8.2l0.85,0.17c0,0.57-0.28,0.85-0.85,0.85
		c1.14,1.82,1.94,3.87,2.39,6.15c0.11,1.71,0.63,3.76,1.54,6.15c0.11,0,0.34,0,0.68,0l-1.2-12.3c-0.68,0-1.03-0.28-1.03-0.85
		c0-3.42-1.08-5.7-3.25-6.83c0-0.23-0.4-0.46-1.2-0.68c0-0.34-0.11-0.74-0.34-1.2c0.46-0.46,1.14-0.68,2.05-0.68
		c0.8,0,1.54-0.23,2.22-0.68c1.37,1.02,1.88,2.39,1.54,4.1c-0.46,1.59-0.29,3.08,0.51,4.44c0-0.11,0.68,0.06,2.05,0.51l-0.85,1.88
		c0.8,1.59,1.2,3.13,1.2,4.61c0,1.59,0.34,3.08,1.03,4.44c4.1,9.11,3.82,18.51-0.85,28.19c0,0.57,0.28,0.91,0.85,1.03
		c-0.57,0-0.29-0.23,0.85-0.68c0-3.08,1.14-5.52,3.42-7.35c2.05-1.71,2.96-4.1,2.73-7.18l4.78-17.26c0-0.34-0.28-0.63-0.85-0.85
		c-0.8,0-1.2,0.17-1.2,0.51l-2.73,7.52c0-2.96-0.86-4.61-2.56-4.96c-0.11,0-0.26,0.06-0.43,0.17c-0.17,0.11-0.31,0.17-0.43,0.17
		c1.03,1.37,1.31,4.04,0.85,8.03c-2.05-3.87-3.08-7.97-3.08-12.3c0-3.87-0.74-8.03-2.22-12.47c-0.46,0-0.91-0.23-1.37-0.68
		c-0.46-0.57-0.85-1.2-1.2-1.88c0.46-0.23,1.03-0.34,1.71-0.34c0.91,0,1.54-0.17,1.88-0.51c0.12,0.11,0.23,0.17,0.34,0.17
		c0.23,0.23,0.46,0.34,0.68,0.34l1.2,8.03c0.11,0.23,0.51,0.34,1.2,0.34c0.57,0,0.97,0.11,1.2,0.34c1.03-0.34,1.31-0.97,0.86-1.88
		c-0.46-0.8-0.51-1.54-0.17-2.22c-0.34-0.8-0.91-1.65-1.71-2.56c-0.8-0.46-1.25-1.31-1.37-2.56c0,0.23,1.42,0.17,4.27-0.17l0.34,9.4
		c0.8,0.34,1.71,0.4,2.73,0.17l-1.2-9.4c4.44-4.21,7.18-8.2,8.2-11.96c0-0.23,0.29-0.34,0.86-0.34c2.62,3.3,4.67,7.35,6.15,12.13
		l3.59,1.54l-5.47,5.13c0.11,0.34,0.23,0.57,0.34,0.68c1.59-0.91,3.36-2.16,5.3-3.76c1.71-1.37,3.93-2.05,6.66-2.05v1.2
		c-5.35,1.25-8.66,2.85-9.91,4.78c0,0.34,0.23,0.51,0.68,0.51c2.73-2.16,5.47-3.36,8.2-3.59c0.68,0.23,1.02,0.51,1.02,0.85
		l-7.69,3.42c0,0.46,0.17,0.68,0.51,0.68l9.74-3.59c0.23,0,0.34,0.28,0.34,0.85c0,0.23-0.29,0.68-0.85,1.37l-7.86,2.05
		c-0.46,0.46-0.68,0.74-0.68,0.85l9.74-2.05l-7.86,2.22c0,0.23,0,0.51,0,0.85h8.71c0,0.23,0,0.46,0,0.68v0.34
		c-4.67,0-8.71,0.85-12.13,2.56c-0.23-0.11-0.51-0.4-0.85-0.85l-2.39-0.17c-0.46,1.59-0.68,3.13-0.68,4.61
		c0,1.37-0.23,3.08-0.68,5.13c1.71,2.16,3.53,4.33,5.47,6.49l5.64-1.37c0.34,0,0.51-0.57,0.51-1.71l-1.54-2.22
		c0.34,0,1.2,0.68,2.56,2.05c1.25,1.71,2.11,3.53,2.56,5.47c0.34,2.28,0.85,4.16,1.54,5.64c0,2.96,0.34,4.78,1.03,5.47
		c0.11,0.8,0.8,0.97,2.05,0.51l-1.88-5.81c1.48,3.76,3.53,6.72,6.15,8.89l3.42,5.64c0.57,0.57,0.85,0.34,0.85-0.68
		c-1.48-1.37-2.45-3.02-2.9-4.95c-0.46-1.71-1.6-3.19-3.42-4.44c-0.57-2.39-1.65-4.33-3.25-5.81c-1.37-1.14-2.05-2.96-2.05-5.47
		c-1.94-4.44-3.82-7.23-5.64-8.37h-1.37l0.34-2.56c0-0.8-0.28-1.03-0.85-0.68c-2.16,2.16-2.28,3.87-0.34,5.13
		c0.11,0.34,0.51,1.08,1.2,2.22c0,0.57-1.08-0.46-3.25-3.08c0-0.23,0-0.4,0-0.51c0-0.23,0-0.46,0-0.68c0-0.57-0.34-0.85-1.03-0.85
		c-1.25,1.59-1.14,3.08,0.34,4.44c1.71,1.02,2.22,1.37,1.54,1.02l-1.88,0.51l-4.44-4.27c1.25-4.21,1.71-7.01,1.37-8.37
		c0.91,1.02,1.14,2.79,0.68,5.3c-0.57,0.57-0.97,1.02-1.2,1.37c0,0.57,0.4,0.85,1.2,0.85l2.05-5.64c1.48-1.48,3.36-2.39,5.64-2.73
		c3.19-0.46,5.47-0.8,6.83-1.03c0,2.62,0.23,3.36,0.68,2.22l-8.2,0.68c0.57-0.68,0.86,0.8,0.86,4.44c1.03,1.71,2.45,3.53,4.27,5.47
		c1.48,1.48,2.22,3.36,2.22,5.64c2.62,6.38,6.44,12.25,11.45,17.6c4.56,5.24,6.61,11.62,6.15,19.14c-0.8,3.3-3.42,5.98-7.86,8.03
		c-8.66-0.34-14.07-2.05-16.23-5.13c-0.46-0.34-0.34-1.48,0.34-3.42l-6.15-4.1v-2.56c2.62-3.53,6.72-5.3,12.3-5.3
		c3.87,1.14,6.78,2.96,8.71,5.47c0,0.46-0.29,0.68-0.86,0.68c-2.28-1.37-4.21-2.45-5.81-3.25c-2.05-1.03-4.27-1.2-6.66-0.51
		c-1.37,0.46-2.28,1.2-2.73,2.22c0,0.46,0.23,0.68,0.68,0.68c1.82-1.37,3.93-1.77,6.32-1.2l4.79,3.59
		c-0.57,0.46-0.86,0.51-0.86,0.17l-7-2.39c-0.57,0.23-0.85,0.46-0.85,0.68c0,0.23,0.06,0.51,0.17,0.85
		c1.82,0.34,3.99,0.91,6.49,1.71c2.16,0.8,4.27,0.51,6.32-0.85l1.2-1.88l-0.85-5.13c-1.71-1.37-3.76-3.42-6.15-6.15
		c-1.94-1.82-4.61-3.08-8.03-3.76c-1.82,0.45-3.13,1.48-3.93,3.08c-0.91,1.59-2.17,2.73-3.76,3.42c-0.46,0.46-0.8,0.74-1.03,0.85
		v1.71c2.39-1.03,4.44-2.51,6.15-4.44c1.82-1.82,4.27-2.39,7.35-1.71l7.86,7.86l-8.89-5.81c-1.25,0.46-2.16,0.97-2.73,1.54
		c-0.8,0.8-1.99,1.2-3.59,1.2c-1.14,1.37-2.62,2.56-4.44,3.59c-1.48,0.91-2.85,2.22-4.1,3.93c0,0.68-0.51,0.8-1.54,0.34
		c-0.23-2.16,0.68-5.92,2.73-11.28c1.71-1.59,2.96-2.96,3.76-4.1c0.8-1.14,2.11-1.94,3.93-2.39c3.76,0.8,6.89,2.11,9.4,3.93
		c1.14,1.03,2.36,2.08,3.67,3.16c1.31,1.08,2.65,2.14,4.02,3.16l-4.27-6.83l-8.88-7.01c-1.82-0.46-4.67,0-8.54,1.37
		c-2.96,2.73-4.73,5.75-5.3,9.06c-0.8,3.65-1.65,7.01-2.56,10.08l-2.73-0.17c-0.46-5.92,1.88-12.7,7.01-20.33l3.59-1.37
		c0-0.68-0.68-1.31-2.05-1.88c-0.23,0-0.46,0-0.68,0c-0.23,0-0.4,0-0.51,0c-0.23,0-0.46,0-0.68,0c-0.23,0-0.4,0-0.51,0
		c-2.51,3.76-4.61,7.35-6.32,10.76c-2.16,3.99-3.02,8.2-2.56,12.64c-0.11,0-0.34,0.03-0.68,0.09c-0.34,0.06-0.74,0.09-1.2,0.09
		c-0.45-2.85-0.11-5.75,1.03-8.71c1.14-3.87,1.94-6.66,2.39-8.37c-1.37,0.46-3.13,2.73-5.3,6.83c-0.11,1.14-0.17,2.79-0.17,4.96
		c0,0.8,0,1.57,0,2.31c0,0.74,0,1.45,0,2.14c0,0.23-1.02-0.06-3.07-0.85c-1.48-5.58,0.06-10.31,4.61-14.18
		c4.44-3.76,6.32-8.26,5.64-13.5c0.68-0.34,1.2,0.51,1.54,2.56c0,0.8-0.23,1.77-0.68,2.9c-0.46,0.8-0.74,1.71-0.85,2.73
		c0,0.8,0.11,1.31,0.34,1.54c0.11,0,0.26,0,0.43,0c0.17,0,0.37,0,0.6,0l5.13-5.81l5.81,1.37l1.71,0.85l2.91-1.37
		c-0.8-0.46-1.54-1.02-2.22-1.71c-0.57,0.46-1.99,0.28-4.27-0.51c-1.14-1.25-1.88-1.99-2.22-2.22l-0.51,0.34
		c-0.23,0-0.34,0.29-0.34,0.85c0,0.57-0.11,0.91-0.34,1.03h-0.51c-1.48-1.03-1.71-2.56-0.68-4.61l-3.08-4.44h-0.51l1.2,8.71
		c-1.71-2.96-3.02-4.56-3.93-4.78l0.51-6.83c3.08-2.39,4.61-3.99,4.61-4.78c-0.23-1.37-0.86-2.62-1.88-3.76
		c-0.34,0-0.74,0.11-1.2,0.34c-0.34,0.68-0.29,1.65,0.17,2.9c0.34,1.14,0,2.11-1.02,2.91c-0.57,0.8-1.2,1.42-1.88,1.88
		c-0.68,0.34-1.31,0.91-1.88,1.71c2.73,6.83,1.99,12.7-2.22,17.6c-4.33,4.9-6.84,10.37-7.52,16.4c-1.48-1.02-1.48-3.53,0-7.52
		c0-2.39,0.91-4.5,2.73-6.32c1.14-1.02,2.68-2.73,4.61-5.13c1.14-3.08,1.65-6.38,1.54-9.91c-0.23-3.42,0.8-6.55,3.08-9.4
		c0.23-0.23,0.63-0.46,1.2-0.68v-3.76c0.46,0.23-0.23,0.34-2.05,0.34c-0.46-1.48-0.57-3.13-0.34-4.96c0-1.94-0.63-3.7-1.88-5.3
		c-0.23-3.53,1.2-7.69,4.27-12.47c3.07,4.33,3.82,8.43,2.22,12.3c0,0.57-0.17,0.91-0.51,1.02c-0.34,0-0.51,0.23-0.51,0.68
		c0.68,0.68,1.03,0.85,1.03,0.51c2.28-1.71,3.08-4.56,2.39-8.54c-0.34-2.96-1.88-6.21-4.61-9.74c-1.37,2.28-2.34,3.99-2.91,5.13
		c-0.46,0.91-1.42,2.68-2.91,5.3c-0.45,4.56,0.23,8.94,2.05,13.16c1.48,4.21,0.8,8.54-2.05,12.99c0,1.82-0.28,3.64-0.85,5.47
		c-0.46,2.28-0.68,3.82-0.68,4.61c-1.71,3.08-3.93,6.38-6.66,9.91c-2.51,3.19-3.02,6.95-1.54,11.28c-0.91,0-2.05-1.65-3.42-4.96
		c-0.68-3.65-0.46-7.86,0.68-12.64c1.03-4.33,0.11-8.2-2.73-11.62c-2.51-1.71-3.76-4.04-3.76-7c0-2.62-0.85-5.07-2.56-7.35
		c-2.51-0.57-3.13-0.85-1.88-0.85c-0.8,0.8-1.2,1.25-1.2,1.37c1.71,2.51,2.68,5.18,2.91,8.03c0,2.96,1.25,5.47,3.76,7.52
		c3.99,4.44,4.96,9.28,2.91,14.52c-2.17,5.24-1.08,9.85,3.25,13.84c0.11-0.34-1.2,0.68-3.93,3.08c-1.82-4.44-2.17-9.17-1.03-14.18
		c0.91-4.78-0.17-9.34-3.25-13.67c-1.94-2.62-3.36-5.52-4.27-8.71c-1.14-3.42-2.68-6.44-4.61-9.06c-1.48-1.48-2.62-1.2-3.42,0.85
		c-0.34,0.34-0.63,0.57-0.86,0.68c1.03,5.13,3.13,9.28,6.32,12.47c3.19,3.3,5.07,7.29,5.64,11.96c0.34,3.87,0.34,7.75,0,11.62
		c-0.23,3.99,0.34,7.69,1.71,11.11l-2.05,2.9c-5.12-4.33-6.72-10.48-4.78-18.45c1.82-7.86-1.54-12.76-10.08-14.69
		c-2.39-2.05-4.27-4.1-5.64-6.15c-1.25-1.94-2.96-3.82-5.12-5.64l-1.54,0.85c-1.82,1.37-1.48,2.79,1.03,4.27
		c10.82,4.44,16,11.33,15.55,20.67c-0.46,9.11,1.94,16.92,7.18,23.41l-3.08,4.1c-3.42-1.37-5.13-3.47-5.13-6.32
		c0-2.85-0.68-5.58-2.05-8.2c0.68-12.76-5.92-23.75-19.82-32.98c-0.46-0.23-0.85-0.46-1.2-0.68c-0.23,0-0.43,0-0.6,0
		c-0.17,0-0.31,0-0.43,0c-1.03,0.34-1.54,0.91-1.54,1.71c2.28,3.99,5.98,7.97,11.11,11.96c4.67,3.76,6.27,8.77,4.79,15.04
		c2.73,4.1,4.44,8.26,5.12,12.47c0.68,4.44,2.91,7.97,6.66,10.59c-0.68,1.71-2.16,3.02-4.44,3.93c-2.05-0.23-4.27-2.68-6.66-7.35
		c-8.32-0.8-13.73-4.27-16.23-10.42c-1.14-3.76-1.94-7.35-2.39-10.76c-0.57-3.53-2.22-6.72-4.96-9.57
		c-0.68-1.14-1.54-2.73-2.56-4.78c-0.8-1.48-2.17-2.73-4.1-3.76c-1.25,0-2.05,0.63-2.39,1.88c1.03,1.94,2.14,3.84,3.33,5.72
		c1.2,1.88,2.42,3.73,3.67,5.55c2.39,3.65,3.42,8.09,3.08,13.33c2.62,2.51,4.04,5.24,4.27,8.2c0.11,2.96,1.54,5.47,4.27,7.52
		c3.87,1.14,7.01,2.51,9.4,4.1c1.94,1.48,4.38,3.02,7.35,4.61c0.57,0.23,1.08,0.51,1.54,0.85L285,150.8
		c-0.91,0.46-1.99-0.11-3.25-1.71c-0.91-6.15-4.04-10.48-9.4-12.99c-5.47-2.39-9.46-5.81-11.96-10.25c0.68-3.76-0.17-7.06-2.56-9.91
		c-2.39-2.73-3.19-5.92-2.39-9.57c-3.42-8.32-7.75-14.41-12.99-18.28c-0.23,0-0.51,0.06-0.85,0.17c0.46,1.48,0.85,2.9,1.2,4.27
		c2.96,3.42,5.01,6.95,6.15,10.59c1.48,4.78,2.56,8.54,3.25,11.28c2.96,2.51,4.1,5.75,3.42,9.74c-0.8,3.99,0.57,6.89,4.1,8.71
		c5.35,2.39,8.89,6.27,10.59,11.62c1.25,5.13,4.73,8.71,10.42,10.76l1.2,1.2l-2.05,3.59c-1.94-0.23-3.87-1.37-5.81-3.42
		c-1.37-1.37-2.96-2.73-4.79-4.1c-1.71-8.09-6.89-14.41-15.55-18.97c-1.94-3.19-2.9-7.12-2.9-11.79c0-4.33-1.48-8.26-4.44-11.79
		c0-3.99-1.08-7.46-3.25-10.42c-2.28-2.85-4.27-5.7-5.98-8.54c-0.23-0.34-0.51-0.51-0.85-0.51c-0.8,0-1.2,0.28-1.2,0.85
		c3.3,4.33,5.75,9.91,7.35,16.75c1.14,3.08,2.91,6.72,5.3,10.94c2.05,3.76,1.48,7.35-1.71,10.76c-3.87,4.56-6.21,10.14-7,16.75
		c-0.91,6.72-3.93,11.96-9.06,15.72c-0.23,0.46-0.34,0.85-0.34,1.2l1.2,1.37l1.2,10.94c-0.57-1.03-1.2-2.22-1.88-3.59
		c-0.68-1.37-1.37-2.73-2.05-4.1c-1.48-2.85-1.77-5.64-0.86-8.37c2.96-4.56,4.56-9.85,4.79-15.89c0-5.92,2.56-10.59,7.69-14.01
		c0.8-1.59,1.2-4.73,1.2-9.4c-3.19-4.21-4.78-8.89-4.78-14.01c0-5.24-2.17-9.34-6.49-12.3c-0.34,0-0.74-0.23-1.2-0.68
		c-1.48,0-2.22,0.57-2.22,1.71c2.51,6.04,4.61,11.5,6.32,16.4c1.94,6.04,1.37,11.68-1.71,16.92c-1.82,1.71-2.73,3.59-2.73,5.64
		c0,1.82-0.63,3.87-1.88,6.15c0.11,3.42-0.8,6.09-2.73,8.03c-1.94,2.16-2.34,4.56-1.2,7.18c0.23,0.57,0.51,1.42,0.85,2.56
		c0,0.11-0.06,0.34-0.17,0.68l-2.22-0.68c-2.05,2.73-2.16,5.47-0.34,8.2c1.59,2.96,2.85,5.64,3.76,8.03c0,0.91-0.34,0.91-1.03,0
		c-1.14-2.28-3.65-5.41-7.52-9.4c-3.65-5.47-3.59-10.54,0.17-15.21c3.53-4.56,4.9-9.62,4.1-15.21c0.57-5.13,1.88-10.42,3.93-15.89
		c1.82-5.01,0.63-10.31-3.59-15.89c0-1.48,0.17-2.73,0.51-3.76c0.34-1.03,0.06-2.11-0.85-3.25l-2.05-0.68l-2.56,1.2
		c-2.85,4.56-2.51,8.94,1.03,13.16c3.42,4.44,3.47,8.6,0.17,12.47c-4.44,4.1-6.66,9.11-6.66,15.04c0,5.7-1.59,10.94-4.78,15.72
		c-1.14,3.3,0.06,7.52,3.59,12.64c2.16,2.28,3.08,3.99,2.73,5.12c-2.16-1.25-4.39-2.33-6.66-3.25c-2.39-0.57-4.1-2.16-5.13-4.78
		c-1.14-5.58-0.34-11.05,2.39-16.4c2.51-5.01,3.42-10.42,2.73-16.23c1.02-2.51,2.22-4.84,3.59-7.01c1.37-2.05,2.05-4.44,2.05-7.18
		c-0.46-0.46-1.03-0.68-1.71-0.68c-1.48,1.82-3.3,2.96-5.47,3.42c-2.39,0.46-3.59,1.94-3.59,4.44c-2.73,9.23-4.1,17.88-4.1,25.97
		c-4.9,6.38-5.07,12.76-0.51,19.14c0.23,0.57,0.46,1.03,0.68,1.37c0.23,0.34,0.4,0.57,0.51,0.68c-3.87-1.03-6.83-4.84-8.89-11.45
		c0.34-2.17,0.71-4.41,1.11-6.75c0.4-2.34,0.77-4.7,1.11-7.09c0.68-4.9,0.74-9.51,0.17-13.84c3.08-4.1,3.42-7.58,1.03-10.42
		c-5.47-2.62-7.46-6.95-5.98-12.99c1.37-5.58-0.8-9.45-6.49-11.62c-3.64-1.37-7.46-2.34-11.45-2.9c-4.21-0.34-7.75-1.88-10.59-4.61
		c-0.57,0-0.85,0.28-0.85,0.85c0.46,2.28,3.3,4.33,8.54,6.15c2.16,0.68,4.73,1.2,7.69,1.54c2.51,0.46,4.33,1.54,5.47,3.25
		c1.59,2.73,1.82,5.7,0.68,8.88c-1.25,2.96-0.8,5.64,1.37,8.03c4.1,2.51,6.27,5.07,6.49,7.69c-0.34,1.71-0.68,3.5-1.03,5.38
		c-0.34,1.88-0.68,3.67-1.02,5.38c-0.68,3.65-1.03,7.23-1.03,10.76c-2.16,2.85-2.85,5.75-2.05,8.71c0.68,3.08,1.14,5.98,1.37,8.71
		c1.82,2.62,2.73,4.04,2.73,4.27c-2.85,0-4.67-1.71-5.47-5.13c0-2.51-0.46-5.13-1.37-7.86c-0.8-2.39-0.63-5.01,0.51-7.86
		c1.02-3.19,1.2-6.55,0.51-10.08c-0.57-3.42-0.06-6.49,1.54-9.23c-1.14-2.73-3.08-4.84-5.81-6.32c-2.85-1.14-4.27-3.65-4.27-7.52
		c0-5.35-1.2-8.71-3.59-10.08c-4.21-0.8-7.86-1.2-10.94-1.2c-3.53,0-6.66-1.2-9.4-3.59c-7.06-0.57-14.01-3.36-20.85-8.37
		c-0.8,0.8-1.2,1.42-1.2,1.88c-0.23,1.71,0.57,3.13,2.39,4.27c1.59,1.03,3.08,2.28,4.44,3.76c4.21,0.91,9.28,2.16,15.21,3.76
		c4.56,1.37,8.77,3.36,12.64,5.98c3.65,0.91,5.7,2.33,6.15,4.27c-1.59,4.67-0.63,8.54,2.9,11.62c3.42,3.19,4.1,6.95,2.05,11.28
		c-0.91,4.56-0.74,8.6,0.51,12.13c1.25,3.65,1.88,7.46,1.88,11.45c0.46,0.91,0.74,1.37,0.85,1.37c-1.59-0.11-2.9-1.99-3.93-5.64
		c-1.03-3.42-2.45-6.95-4.27-10.59c-1.82-3.42-1.99-7.29-0.51-11.62c-0.34-2.85-1.88-5.47-4.61-7.86c-2.51-2.16-3.02-4.9-1.54-8.2
		c0.57-0.34,0.85-0.85,0.85-1.54c-2.16-1.94-4.9-3.42-8.2-4.44c-4.56-1.14-7.86-1.94-9.91-2.39c-6.61,0-10.99-1.08-13.16-3.25
		c0-1.48-1.94-3.59-5.81-6.32c-10.14-2.73-19.48-3.7-28.02-2.91c0,0.11-0.11,0.4-0.34,0.85l0.17,0.51l0.17,0.34
		c8.43,0.23,15.32,2.62,20.68,7.18c3.99,2.28,8.09,4.04,12.3,5.3c3.3,1.14,7.46,2.73,12.47,4.78l4.78,13.5
		c1.02,2.85,3.08,4.56,6.15,5.13c2.96,0.68,4.84,2.33,5.64,4.96c3.19,2.16,4.1,4.21,2.73,6.15c-1.14,2.62-0.28,5.64,2.56,9.06
		c1.59,1.71,3.02,3.87,4.27,6.49c-2.73-1.59-5.35-3.53-7.86-5.81c-2.51-2.05-3.76-4.84-3.76-8.37c0.68-1.59,0.28-3.76-1.2-6.49
		c-1.14-1.71-2.73-2.73-4.78-3.08c-2.05-0.34-3.82-1.02-5.3-2.05c-2.62-1.94-4.16-4.84-4.61-8.71c-0.34-3.64-2.05-6.66-5.13-9.06
		c-1.25-0.23-2.51-0.48-3.76-0.77c-1.25-0.29-2.45-0.6-3.59-0.94c-2.28-0.34-4.5-1.25-6.66-2.73c-2.62-1.03-4.96-2.28-7.01-3.76
		c-2.28-1.48-4.9-2.39-7.86-2.73c-3.64,0.68-7.69,0.46-12.13-0.68c-4.21-1.02-8.2-0.85-11.96,0.51c-2.28,3.65-3.47,5.75-3.59,6.32
		c3.53-0.8,6.09-1.31,7.69-1.54c2.73-0.34,5.64,0,8.71,1.02c6.72,0.46,12.47,2.16,17.26,5.13c4.78,3.08,10.37,4.84,16.75,5.3
		c4.33,1.71,6.83,4.73,7.52,9.06c0.68,4.56,3.47,7.06,8.37,7.52l0.34,0.17c-0.46,0.46-1.08,0.57-1.88,0.34
		c-1.14,0-1.94,0.11-2.39,0.34l-2.73,2.73l-2.22-10.25c-4.56-4.1-10.42-5.81-17.6-5.13c-7.4,0.8-13.1-1.71-17.09-7.52
		c-3.99-1.37-7.97-1.99-11.96-1.88c-3.65,0-7.63,0.4-11.96,1.2c-1.03,0.68-1.54,1.25-1.54,1.71l-0.68,5.13
		c0.68,1.14,1.42,1.71,2.22,1.71c2.85-2.05,7.63-3.08,14.35-3.08l-2.05,2.22c0,0.57,0.23,0.85,0.68,0.85
		c1.37,0.34,2.85,0.8,4.44,1.37c1.59,0.57,3.25,1.08,4.96,1.54c2.96,1.02,5.81,2.45,8.54,4.27c2.05,1.14,3.99,1.14,5.81,0
		c1.71-1.03,3.47-1.03,5.3,0c-0.68,0.46-1.59,0.68-2.73,0.68c-1.14,0-2.16,0.23-3.08,0.68c-4.44,0-9.34-1.48-14.69-4.44
		c-5.13-2.73-10.31-3.7-15.55-2.9c-4.56,1.94-7.18,3.76-7.86,5.47c0,3.42,0.63,5.64,1.88,6.66c0,0.34,0.17,0.51,0.51,0.51
		c2.51-0.46,5.01-1.59,7.52-3.42c2.39-1.48,5.24-1.6,8.54-0.34c4.78,4.9,10.82,6.27,18.11,4.1c7.29-2.05,13.56-0.97,18.8,3.25
		c1.25,1.82,1.88,3.3,1.88,4.44c-3.53-1.48-7.12-2.79-10.76-3.93c-4.33-1.14-8.54-1.25-12.64-0.34c-3.08,1.48-6.15,1.48-9.23,0
		c-2.05-0.68-5.35-1.71-9.91-3.08c-3.64-0.8-6.83-0.74-9.57,0.17c-2.39,1.6-3.08,2.85-2.05,3.76c0.34,0.91,0.74,1.79,1.2,2.65
		c0.46,0.85,0.85,1.62,1.2,2.31l2.05,4.61c1.59,0,3.42-0.46,5.47-1.37c1.82-0.68,3.59-0.57,5.3,0.34c2.05,1.48,4.27,1.48,6.66,0
		c2.28-1.14,4.39-1.14,6.32,0c2.62,0.34,5.75-0.06,9.4-1.2c3.19-1.03,5.87-0.68,8.03,1.02l1.54,4.78c-0.8-0.57-1.2-1.42-1.2-2.56
		c0-0.91-0.74-1.59-2.22-2.05c-3.3-0.57-6.55-0.34-9.74,0.68c-2.73,1.03-6.09,1.14-10.08,0.34c-1.14,0.23-1.99,0.63-2.56,1.2
		c-0.68,0.68-1.65,1.03-2.9,1.03l-8.2,0.17L86.28,159l10.08,5.81c3.76-1.82,8.43-2.51,14.01-2.05l1.54,1.37l-2.56-1.03
		c-2.85,0.91-6.21,2.34-10.08,4.27c-3.53,1.82-7.18,1.48-10.94-1.03c-1.14,0.8-1.42,1.71-0.85,2.73c1.03,1.59,2.11,2.39,3.25,2.39
		c7.97-0.34,13.78,0.17,17.43,1.54l1.2,2.05c0,0.8-0.23,0.97-0.68,0.51c-0.23-0.11-0.4-0.34-0.51-0.68
		c-2.96-1.59-6.32-2.05-10.08-1.37c-3.65,0.8-7.18,0.63-10.59-0.51c-0.23,0-0.51,0-0.85,0c-0.68,2.62-0.8,4.21-0.34,4.78
		c2.39,1.25,4.73,1.42,7.01,0.51c2.16-0.8,4.56-1.14,7.18-1.03c2.05,0,2.16,0.29,0.34,0.85c-2.51,0-5.07,0.57-7.69,1.71
		c-2.39,1.14-5.01,0.97-7.86-0.51c-0.68,0-1.25,0.17-1.71,0.51l-0.68,1.71c1.02,2.39,2.16,3.76,3.42,4.1l6.66-1.2
		c0.57,0.46,0.97,0.85,1.2,1.2c0.23-0.46-0.51-0.68-2.22-0.68c-2.73,2.28-5.75,2.85-9.06,1.71c-3.42,1.25-4.44,2.62-3.08,4.1
		c1.71,0.57,3.42,0.51,5.13-0.17c1.71-0.68,3.36-0.29,4.95,1.2c1.14,0.46,1.14,0.74,0,0.85l-12.99,1.37c-0.23,0-0.97-0.74-2.22-2.22
		l-2.39-0.85l-1.88,0.85l-1.2,2.22l0.51,2.05c0.91,0.91,2.05,0.97,3.42,0.17c1.14-0.68,2.28-0.68,3.42,0l1.2,1.2l-7.35,0.34
		c-0.46,0.46-0.57,0.91-0.34,1.37c0.8-0.11,1.65-0.17,2.56-0.17c3.08,0.91,5.87,0.74,8.37-0.51c-1.14,1.82-2.85,2.33-5.13,1.54
		c-2.28-0.68-4.1-0.34-5.47,1.03c0,0.11-0.23,0.4-0.68,0.85v2.22l8.37-0.68l-7.69,2.39c-1.71,1.25-1.48,2.22,0.68,2.9l3.59-2.22
		l7.35-0.34c1.59-2.85,4.04-5.58,7.35-8.2c3.08-2.28,5.98-4.67,8.71-7.18c4.1-3.64,8.03-7.06,11.79-10.25
		c1.82-1.59,3.73-3.25,5.72-4.96c1.99-1.71,4.02-3.42,6.07-5.12c2.96-3.65,6.66-6.72,11.11-9.23c4.21-2.16,6.55-6.21,7.01-12.13
		c1.25-1.82,3.02-3.82,5.3-5.98c0,1.71-1.02,3.3-3.08,4.79c-2.05,1.37-3.08,3.19-3.08,5.47c16.4,15.83,36.28,23.47,59.63,22.9
		l-0.34-4.78c1.03,0.68,2.14,1.42,3.33,2.22c1.2,0.8,2.42,1.54,3.67,2.22c2.39,1.37,5.13,1.54,8.2,0.51c0.23,0,0.57-0.23,1.02-0.68
		c0,0.57-0.63,0-1.88-1.71c0.46-0.46,1.59-0.34,3.42,0.34c0.57,0.57,0.85,1.25,0.85,2.05l18.62,2.05c0.8,0,1.71-0.68,2.73-2.05
		c3.08-2.28,6.09-2.79,9.06-1.54l2.73,0.86c2.05-0.34,4.27,0,6.66,1.02l-11.79-0.34c0,0.57,1.14,1.54,3.42,2.91
		c1.14,0,2.62,0.23,4.44,0.68c1.82,0.46,3.13,0.68,3.93,0.68c-1.48,0.8-3.3,0.8-5.47,0c-3.08-0.68-5.07-1.08-5.98-1.2
		c-1.59-1.14-3.02-1.88-4.27-2.22c-0.68,0.68-1.48,1.37-2.39,2.05l1.2,3.93c1.14,0.57,2.33,0.85,3.59,0.85
		c1.25,0,2.45,0.28,3.59,0.85c0.68,0,1.34,0,1.96,0c0.63,0,1.22,0,1.79,0c0.46,0,0.97,0,1.54,0c0.57,0,1.2,0,1.88,0
		c0.46,0.46,0.63,0.74,0.51,0.85l-14.01-0.17c-0.91,1.14-0.91,2.39,0,3.76c3.08,0,5.3,0.51,6.66,1.54l4.27-1.54
		c1.03,1.37,0,2.22-3.08,2.56h-3.25l-0.34,0.68c0.46,0.46,1.88,0.68,4.27,0.68c-1.48,0.34-2.9,0.57-4.27,0.68
		c-0.68-0.46-1.03-0.97-1.03-1.54c0-0.68-0.34-1.25-1.03-1.71l-2.22,0.51c-1.25,0.8-1.88,2.11-1.88,3.93
		c0.8,0.91,1.71,1.42,2.73,1.54c0.8,0.23,1.59,0.68,2.39,1.37c1.03,0.11,2.68,0.4,4.96,0.85c1.48,0.46,3.13,0.29,4.96-0.51
		c-1.48,1.82-4.84,1.99-10.08,0.51c-2.73-1.48-3.76-2.16-3.08-2.05c-0.57,0-0.85,0.11-0.85,0.34l-0.34,2.56
		c0.8,1.03,1.54,1.54,2.22,1.54l10.59,0.86c0,0.23,0.11,0.46,0.34,0.68l-10.76-0.34c0.23,0,0.17,1.08-0.17,3.25h9.57
		c1.59,0,1.71,0.17,0.34,0.51l-3.08,0.17c-0.46,0-0.51,0.34-0.17,1.03l2.39,1.2l-5.47-2.22l-2.73,0.68c-0.91,0.8-0.91,1.94,0,3.42
		l8.71,0.17c0,0.57-0.4,0.85-1.2,0.85l-7.18,0.68l2.05,39.47c1.03,1.48,2.51,2.79,4.44,3.93c1.71,1.14,2.33,2.91,1.88,5.3l5.47-1.54
		c-3.76-4.56-5.98-10.02-6.66-16.4c-0.57-6.27-0.34-12.25,0.68-17.94c0.11-0.68,0.28-1.34,0.51-1.96c0.23-0.63,0.46-1.28,0.68-1.96
		c0.46-1.37,0.68-2.62,0.68-3.76l-5.3,0.68l-0.51-0.17c-0.11,0-0.34,0-0.68,0c-0.23-0.23-0.4-0.4-0.51-0.51
		c-0.23,0-0.46-0.29-0.68-0.85l7.69-0.85l3.59-18.28c-1.37-1.14-3.19-1.37-5.47-0.68c-2.28,0.8-4.33,0.57-6.15-0.68l11.28-0.17
		c1.94-10.48,7.4-18.28,16.4-23.41c1.82-2.05,1.54-4.84-0.85-8.37c-1.03-2.05-2.33-3.25-3.93-3.59l-5.13-1.71
		c-1.37-2.05-2.22-3.3-2.56-3.76c-1.03-1.14-1.54-2.56-1.54-4.27c-1.03-1.82-3.25-3.47-6.66-4.96c-0.34-0.11-0.63-0.46-0.85-1.03
		c-0.12-0.23-0.63-0.57-1.54-1.03c-0.46,0-0.74,0.17-0.85,0.51c0,0.91,0.34,2.28,1.03,4.1c0.46,1.25,0.17,2.39-0.86,3.42l-7.86,4.44
		c-0.23-1.25,0.11-2.51,1.03-3.76c0.8-0.57,1.54-1.03,2.22-1.37c1.37-0.34,2.05-0.91,2.05-1.71c-1.25-3.08-0.57-8.37,2.05-15.89
		h0.51c1.25,2.16,2.45,3.93,3.59,5.3c1.25,1.71,2.22,3.53,2.91,5.47c5.7,3.53,8.2,7.58,7.52,12.13c1.37,0.91,2.73,1.82,4.1,2.73
		c1.37,0.91,2.73,1.77,4.1,2.56c2.51,1.82,4.16,4.5,4.96,8.03c-2.73,3.87-6.26,7.23-10.59,10.08c-4.56,3.19-6.83,7.63-6.83,13.33
		c-0.23,4.1-0.97,8.49-2.22,13.16c-1.37,4.78-2.11,9-2.22,12.64c-5.24,17.2-3.13,31.5,6.32,42.89c0,0.23,0.34,0.97,1.03,2.22
		c0.34,0.57,0.51,1.2,0.51,1.88L258.17,268.35z M259.2,174.04l-2.56-0.68l-2.56-2.56c-2.85,1.14-5.7,1.31-8.54,0.51
		c-3.08-0.46-5.92-0.4-8.54,0.17c-2.39-0.91-3.13-3.02-2.22-6.32c1.25-1.25,2.68-2.22,4.27-2.91c1.71-0.68,3.25-1.82,4.61-3.42
		c3.19-1.37,4.61-1.88,4.27-1.54l1.54-3.59c0.11,0,0.34-0.06,0.68-0.17c0.11-0.11,0.29-0.17,0.51-0.17c0.8,0,1.71,0.68,2.73,2.05
		l4.79,3.42c0,0.34,0.23,0.74,0.68,1.2l-0.85,1.71l-5.81-2.9l-4.27,1.54c-1.03,0.46-1.71,1.25-2.05,2.39
		c-0.46,1.14-1.48,1.77-3.08,1.88c-3.3,1.25-5.07,1.99-5.3,2.22c0,0.46,1.03,1.2,3.08,2.22c1.37,0,2.51-0.03,3.42-0.09
		c0.91-0.06,1.54-0.09,1.88-0.09c2.85-5.24,8.09-6.61,15.72-4.1c0,0.11,0,0.28,0,0.51l-10.42,1.54c-1.14,0.23-1.71,0.97-1.71,2.22
		c1.14,0.68,2.68,0.8,4.61,0.34c1.71-0.34,3.08,0.11,4.1,1.37c2.05,2.51,2.79,3.25,2.22,2.22
		C260.39,173.69,259.99,174.04,259.2,174.04z"/>
</g>
</svg>
